<svg width="795" height="851" viewBox="0 0 795 851" fill="none" xmlns="http://www.w3.org/2000/svg">
<g clip-path="url(#clip0_176_190)">
<path d="M441.194 216.85C441.088 216.967 441.04 217.112 441.011 217.268C441.072 217.129 441.133 216.989 441.194 216.85Z" fill="black"/>
<path d="M556.398 393.615C555.145 392.421 553.86 391.256 552.522 390.172C545.819 384.745 539.719 378.59 533.756 372.279C528.679 366.904 523.547 361.572 518.978 355.685C508.805 342.576 500.727 328.044 493.947 312.677C491.699 307.582 489.888 302.267 487.812 297.083C483.821 287.115 480.004 277.066 476.854 266.762C473.256 254.991 469.712 243.198 467.425 231.013C465.125 218.759 462.141 206.658 460.553 194.243C459.684 187.445 457.997 180.804 456.54 174.124C454.825 166.261 453.333 158.342 450.971 150.651C448.451 142.444 445.881 134.253 441.89 126.706C433.349 110.553 422.675 96.2736 409.15 84.5397C402.6 78.8566 395.448 74.278 387.657 70.8058C380.278 67.5173 372.616 65.2933 364.819 63.5377C358.942 62.2147 353.019 61.212 347.012 60.9085C339.317 60.52 331.705 61.4335 324.183 63.0267C316.616 64.6297 309.505 67.5687 303.151 72.3816C300.508 74.3841 298.302 76.8213 296.355 79.601C293.535 83.6262 292.357 88.2785 291.362 93.0576C291.035 94.6323 291.441 96.7002 290.182 97.6648C288.984 98.5832 287.224 98.0631 285.696 98.0682C284.961 98.071 284.226 98.0722 283.492 98.0484C279.924 97.9333 276.435 98.5152 273.062 99.6627C263.774 102.823 255.423 107.77 248.231 114.875C245.257 117.812 242.541 121 240.032 124.394C233.415 133.349 227.494 142.835 221.477 152.248C220.254 154.162 219.205 156.209 218.153 158.242C216.498 161.443 215.132 164.784 214.151 168.298C212.649 173.679 212.147 179.108 213.01 184.703C214.016 191.223 216.227 197.272 218.885 203.169C220.098 205.859 221.42 208.493 222.649 211.175C224.069 214.275 225.124 217.516 225.432 220.968C225.756 224.604 226.235 228.23 226.18 231.898C226.113 236.329 226.145 240.762 226.017 245.19C225.837 251.393 225.654 257.586 226.159 263.787C226.748 271.014 228.192 277.981 230.972 284.626C234.557 293.197 239.273 300.941 245.346 307.732C245.788 308.226 246.581 308.557 246.436 309.452C245.853 309.967 245.213 309.969 244.607 310.06C237.219 311.167 229.986 312.992 222.899 315.479C216.497 317.725 210.34 320.559 204.572 324.317C203.15 325.244 201.833 326.303 200.766 327.683C200.47 328.065 200.47 328.499 200.754 328.886C201.008 329.231 201.281 329.572 201.594 329.853C204.82 332.754 207.132 336.388 209.066 340.35C212.094 346.55 214.224 353.134 216.451 359.683C216.825 360.78 216.662 361.544 216.005 362.395C214.216 364.709 212.742 367.233 211.683 370.034C210.654 372.759 210.079 375.599 210.606 378.471C210.94 380.288 210.72 381.434 209.093 382.178C208.63 382.39 208.253 382.817 207.83 383.135C193.619 393.835 179.407 404.533 165.195 415.231C164.999 415.46 164.817 415.461 164.649 415.195C164.778 414.782 164.856 414.34 165.042 413.959C166.918 410.108 166.946 406.104 165.956 402.005C165.536 400.266 164.849 398.668 163.779 397.28C161.863 394.795 159.922 394.202 157.193 395.518C155.696 396.239 154.26 397.177 152.934 398.217C147.872 402.19 143.705 407.092 140.316 412.731C134.972 421.623 130.577 430.987 128.215 441.326C128.047 442.059 127.664 442.717 127.109 443.183C125.236 444.755 123.421 446.415 121.477 447.88C108.707 457.507 95.9069 467.087 83.1195 476.687C82.3581 477.258 81.567 477.805 80.8853 478.474C79.4177 479.916 79.1801 481.927 80.1954 483.569C81.2642 485.298 83.2752 485.828 85.1268 484.792C85.8554 484.385 86.5115 483.826 87.189 483.318C96.6763 476.202 106.162 469.084 115.647 461.964C117.255 460.757 118.914 459.624 120.313 458.121C120.664 457.745 121.069 457.352 121.806 457.495C121.516 460.648 121.231 463.815 120.933 466.979C120.519 471.387 120.001 475.785 119.949 480.224C119.903 484.212 119.824 488.2 119.811 492.188C119.787 499.279 119.828 506.369 119.794 513.46C119.749 522.625 118.259 531.496 115.187 540.083C113.449 544.941 111.545 549.72 109.65 554.506C104.199 568.277 99.3021 582.221 96.6695 597.002C95.0126 606.304 94.2643 615.635 94.4723 625.077C94.4869 625.737 94.5122 626.413 94.6579 627.049C94.7852 627.604 95.1896 627.979 95.7726 628.034C96.4614 628.099 96.9817 627.824 97.2641 627.135C97.6119 626.288 97.4619 625.39 97.4474 624.51C97.366 619.633 97.4164 614.75 97.8707 609.901C98.6773 601.294 100.365 592.852 102.514 584.519C105.023 574.792 108.6 565.482 112.242 556.197C114.362 550.792 116.617 545.446 118.417 539.9C119.98 535.083 121.291 530.208 121.972 525.144C122.802 518.977 122.779 512.775 122.752 506.573C122.697 494.056 122.495 481.535 123.734 469.057C124.138 464.983 124.609 460.917 124.96 456.838C125.127 454.9 125.882 453.53 127.527 452.663C129.948 451.387 132.093 449.639 134.287 447.979C143.24 441.207 152.183 434.42 161.149 427.666C163.684 425.757 166.284 423.958 168.747 421.929C170.955 420.11 173.355 418.556 175.691 416.918C176.651 416.245 177.098 416.478 177.445 417.709C177.974 419.586 177.901 421.42 177.118 423.208C176.013 425.733 174.57 428.021 172.841 430.099C170.082 433.414 167.743 437.073 165.263 440.617C164.08 442.307 163.113 444.14 162.444 446.133C162.201 446.858 161.986 447.612 161.896 448.372C161.814 449.069 162.12 449.658 162.783 449.946C163.451 450.235 164.27 449.906 164.606 449.171C164.787 448.775 164.889 448.339 165.048 447.93C165.443 446.911 165.741 445.826 166.27 444.891C168.47 441 171.117 437.449 173.769 433.906C174.498 432.931 175.421 432.721 176.542 432.94C177.739 433.175 178.656 433.82 179.357 434.832C180.304 436.2 180.817 437.741 180.859 439.459C180.923 442.086 180.257 444.496 178.992 446.721C177.375 449.561 175.615 452.299 173.566 454.805C171.727 457.055 169.817 459.24 167.956 461.471C167.407 462.128 166.895 462.826 166.41 463.539C166.066 464.045 166.153 464.577 166.51 465.063C166.95 465.662 167.519 465.802 168.162 465.551C168.872 465.274 169.307 464.628 169.8 464.062C171.139 462.521 172.453 460.954 173.834 459.457C175.41 457.748 177.375 456.761 179.574 456.424C182.432 455.985 184.12 457.76 183.919 460.856C183.831 462.216 183.409 463.46 182.697 464.572C182.231 465.299 181.726 466.02 181.134 466.627C179.792 468.006 178.39 469.318 177.005 470.648C174.925 472.643 172.825 474.614 170.766 476.634C170.157 477.23 170.094 478.183 170.488 478.745C170.963 479.421 171.978 479.583 172.713 479.028C173.217 478.648 173.662 478.177 174.117 477.728C176.276 475.596 178.794 474.108 181.498 472.931C182.471 472.507 183.469 472.258 184.507 472.208C185.891 472.142 186.657 472.727 186.968 474.183C187.367 476.05 187.29 477.917 186.782 479.764C185.879 483.048 184.142 485.745 181.763 487.994C179.746 489.9 177.699 491.771 175.71 493.711C171.339 497.977 167.328 502.586 163.969 507.824C157.958 517.194 154.349 527.607 152.291 538.679C150.609 547.728 150.072 556.914 149.998 566.109C149.885 580.093 151.22 593.979 153.07 607.805C153.598 611.747 154.404 615.645 155.447 619.474C155.735 620.53 156.092 621.573 156.516 622.574C156.842 623.342 157.647 623.591 158.356 623.279C159.038 622.98 159.231 622.353 159.147 621.658C159.082 621.118 158.863 620.6 158.721 620.07C157.862 616.879 157.118 613.663 156.55 610.393C155.641 605.162 155.06 599.89 154.545 594.602C153.814 587.109 153.185 579.605 153.006 572.075C152.764 561.869 153.28 551.691 154.834 541.611C156.327 531.929 159.191 522.725 163.749 514.165C167.375 507.357 172.123 501.54 177.506 496.286C179.646 494.196 181.856 492.188 184.01 490.113C186.933 487.298 188.918 483.866 189.876 479.765C190.337 477.793 190.383 475.8 189.992 473.835C189.351 470.614 187.773 469.247 184.602 468.96C184.327 468.935 184.011 469.028 183.773 468.476C184.129 467.951 184.544 467.336 184.962 466.723C185.959 465.262 186.529 463.615 186.82 461.848C187.425 458.188 186.207 455.614 182.967 453.687C181.7 452.836 179.946 454.324 178.84 452.703C179.809 451.137 180.819 449.599 181.739 448.001C183.066 445.698 183.717 443.147 183.859 440.46C184.114 435.656 182.149 432.202 178.057 430.142C177.782 430.004 177.529 429.818 177.224 429.628C178.118 427.87 179.044 426.18 179.853 424.427C181.006 421.93 181.092 419.326 180.269 416.689C180.138 416.273 179.956 415.875 179.815 415.462C179.393 414.223 179.411 414.153 180.48 413.308C180.978 412.914 181.501 412.558 182.008 412.177C192.07 404.628 202.132 397.078 212.192 389.526C212.868 389.019 213.681 388.622 214.177 387.958C215.259 386.509 216.378 386.726 217.631 387.54C217.806 387.653 217.998 387.783 218.193 387.807C219.987 388.032 220.447 389.3 220.69 391.015C221.61 397.492 222 403.982 221.464 410.518C221.193 413.821 220.958 417.131 220.588 420.422C219.91 426.456 219.183 432.485 218.07 438.45C218.061 439.26 218.052 440.069 218.043 440.878C217.555 441.779 218.106 442.901 217.504 443.777C217.315 444.024 217.126 444.271 216.937 444.519C216.909 446.316 216.318 447.991 215.924 449.703C213.08 462.068 209.142 474.076 205.395 486.141C202.852 494.326 200.195 502.47 198.027 510.782C196.105 518.152 195.639 525.627 197.198 533.124C198.321 538.522 199.831 543.815 201.713 548.979C205.38 559.038 210.158 568.477 215.588 577.553C218.501 582.424 221.237 587.413 223.719 592.55C226.358 598.012 228.924 603.51 230.703 609.379C231.021 610.429 231.281 611.499 231.617 612.542C231.844 613.246 232.499 613.585 233.09 613.374C233.774 613.13 234.101 612.533 234.008 611.843C233.861 610.753 233.621 609.668 233.318 608.615C232.281 605.019 231.035 601.51 229.539 598.096C225.8 589.564 221.324 581.484 216.655 573.505C209.541 561.351 203.756 548.557 200.499 534.543C199.046 528.295 198.934 522.074 199.952 515.781C200.731 510.967 202.223 506.361 203.63 501.737C207.052 490.487 210.557 479.266 214.003 468.023C216.84 458.766 219.342 449.411 220.882 439.793C222.122 432.047 223.16 424.271 223.916 416.448C224.697 408.372 224.832 400.319 223.793 392.262C223.669 391.304 223.596 390.339 223.512 389.506C224.092 388.939 224.627 389.098 225.127 389.08C227.508 388.996 229.869 388.751 232.199 388.188C233.398 387.898 234.742 387.195 235.777 387.532C236.812 387.869 237.559 389.255 238.404 390.21C242.252 394.558 246.95 396.172 252.469 395.408C255.446 394.996 257.667 393.441 259.372 390.87C259.821 390.192 259.944 389.244 260.8 388.814C262.259 390.507 264.019 391.61 266.165 391.864C268.451 392.136 270.742 392.073 272.899 391.157C278.046 388.972 281.647 385.31 282.375 379.137C282.898 374.705 281.581 370.857 278.926 367.472C278.358 366.748 277.468 366.286 277.147 365.238C279.287 363.475 280.411 361.169 280.914 358.487C282.075 352.306 280.198 347.115 276.198 342.75C272.742 338.979 267.563 337.312 262.195 341.657C261.218 342.447 260.293 343.313 259.363 344.127C258.327 343.519 258.401 342.366 258.065 341.492C256.386 337.12 253.592 333.858 249.853 331.415C247.089 329.61 244.095 329.065 240.931 329.244C239.453 329.327 238.074 329.774 236.876 330.713C233.64 333.25 231.02 336.279 229.86 340.545C229.272 342.709 229.024 344.865 229.252 347.102C229.318 347.748 229.469 348.571 229.185 349.036C228.281 350.516 227.786 352.303 225.558 352.874C223.288 353.456 221.465 355.114 220.387 357.33C220.095 357.931 219.567 358.103 218.944 358.5C218.468 357.023 218.018 355.676 217.6 354.318C215.884 348.74 213.85 343.308 211.256 338.122C209.734 335.08 207.907 332.278 205.725 329.735C205.332 329.277 204.74 328.949 204.694 328.238C204.902 327.639 205.409 327.426 205.84 327.141C208.743 325.216 211.772 323.548 214.9 322.083C228.811 315.567 243.482 312.571 258.534 311.592C270.128 310.837 281.699 311.314 293.173 313.482C300.104 314.791 306.898 316.624 313.512 319.243C315.183 319.904 316.289 320.905 317.16 322.533C320.253 328.313 322.721 334.389 324.885 340.618C325.389 342.069 325.833 343.546 326.398 344.969C326.921 346.288 327.671 346.836 328.427 346.66C329.296 346.457 329.582 345.36 329.069 343.819C326.883 337.252 324.535 330.756 321.513 324.564C320.026 321.517 318.321 318.608 316.405 315.861C312.421 310.149 307.176 306.076 301.247 302.965C298.28 301.408 295.23 300.045 292.112 298.858C287.822 297.225 283.669 295.264 279.687 292.893C274.295 289.683 269.584 285.616 265.687 280.46C262.428 276.15 259.404 271.668 256.648 266.976C253.545 261.692 251.252 256.015 249.726 250.007C247.219 240.137 247.043 230.101 248.224 220.016C249.112 212.428 250.66 204.973 252.543 197.601C253.659 193.231 254.473 188.769 256.034 184.532C257.78 179.795 259.699 175.143 261.812 170.582C262.593 168.897 263.461 167.262 264.604 165.811C267.007 162.758 269.169 159.509 271.232 156.192C276.675 147.439 282.07 138.652 287.493 129.885C287.801 129.386 287.934 128.617 288.791 128.744C289.26 130.079 289.708 131.434 290.209 132.767C292.514 138.9 295.766 144.375 300.155 149.05C301.997 151.012 304.005 152.749 306.309 154.056C307.036 154.468 307.789 154.87 308.573 155.113C309.772 155.484 310.912 154.286 310.605 153.01C310.452 152.376 310.177 151.765 309.893 151.18C309.275 149.903 308.595 148.66 307.975 147.385C304.249 139.734 301.885 131.662 301.497 122.999C301.428 121.454 301.52 119.901 301.534 118.353C301.536 118.096 301.667 117.927 301.923 117.985C302.097 118.025 302.313 118.164 302.389 118.324C302.577 118.715 302.686 119.149 302.843 119.558C307.506 131.769 314.648 142.097 323.703 150.962C326.456 153.658 329.393 156.106 332.641 158.094C333.536 158.642 334.464 159.131 335.394 159.607C335.889 159.859 336.38 159.788 336.844 159.422C337.421 158.966 337.519 158.343 337.433 157.659C337.332 156.852 336.81 156.277 336.391 155.651C334.705 153.131 332.98 150.64 331.331 148.092C326.894 141.239 324.445 133.543 323.028 125.418C322.331 124.424 322.494 123.22 322.324 122.098C321.911 121.338 321.775 120.553 321.777 119.723C321.779 118.901 322.952 118.828 323.022 119.648C323.034 119.788 323.034 119.935 323.023 120.088C323.075 121.007 323.829 121.729 323.66 122.709C323.913 123.313 324.176 123.912 324.415 124.521C326.382 129.521 328.465 134.454 331.077 139.121C336.099 148.096 342.87 155.34 350.475 161.771C350.96 162.182 351.495 162.527 352.018 162.882C352.59 163.27 353.19 163.34 353.745 162.871C354.272 162.426 354.512 161.787 354.331 161.105C354.134 160.368 353.834 159.655 353.518 158.964C349.992 151.262 347.456 143.213 346.284 134.719C345.708 130.544 345.438 126.337 346.658 122.205C346.8 121.723 346.729 120.948 347.458 121.056C347.932 121.126 347.777 121.757 347.82 122.141C348.499 128.329 349.904 134.329 352.014 140.128C354.98 148.281 358.354 156.243 362.317 163.895C365.832 170.682 369.695 177.238 374.628 182.988C375.114 183.555 375.616 184.112 376.158 184.617C376.481 184.918 376.893 184.935 377.31 184.716C377.726 184.498 377.998 184.134 377.968 183.687C377.916 182.921 377.809 182.143 377.611 181.406C374.927 171.395 375.168 161.277 376.616 151.115C376.724 150.363 376.84 149.577 377.563 148.916C378.046 151.708 378.507 154.41 378.981 157.109C380.261 164.395 381.474 171.695 383.238 178.873C384.976 185.947 386.945 192.927 390.239 199.394C390.733 200.363 391.096 201.409 391.604 202.369C392.01 203.138 392.879 203.236 393.458 202.642C393.829 202.261 394.136 201.809 394.491 201.408C396.493 199.15 398.67 197.113 401.136 195.448C402.805 194.321 404.567 193.405 406.472 192.826C411.9 191.175 416.129 193.345 418.295 198.898C418.814 200.229 419.145 201.612 419.399 203.034C420.131 207.139 419.841 211.227 419.116 215.259C417.324 225.228 413.376 234.165 407.405 242.048C404.455 245.943 401.098 249.379 396.91 251.761C394.732 253.337 395.646 255.763 395.564 257.832C395.043 271.064 383.894 278.675 372.936 273.203C372.281 272.876 371.636 272.511 370.884 272.849C370.274 274.727 369.678 276.61 369.051 278.482C367.382 283.468 367.601 288.448 368.858 293.505C370.965 301.985 374.536 309.622 379.799 316.362C385.055 323.092 390.522 329.586 397.298 334.642C402.812 338.757 408.339 342.851 414.318 346.184C416.167 347.215 416.176 347.275 415.359 349.181C413.495 353.524 411.171 357.573 408.473 361.377C403.681 368.132 398.013 373.939 391.685 379.011C378.498 389.58 363.785 396.626 347.759 400.55C336.475 403.313 325.074 404.216 313.547 402.66C304.296 401.412 295.577 398.567 287.785 392.905C287.444 392.657 287.091 392.414 286.717 392.233C286.044 391.907 285.513 392.216 285.098 392.781C284.639 393.405 284.749 394.056 285.217 394.579C285.641 395.052 286.143 395.457 286.653 395.826C288.882 397.443 291.241 398.814 293.69 400.015C302.481 404.327 311.793 406.139 321.38 406.494C333.487 406.942 345.309 404.975 356.86 401.185C372.055 396.2 385.944 388.54 398.091 377.472C406.617 369.703 413.735 360.732 418.326 349.666C418.485 349.283 418.787 348.967 419.072 348.547C421.877 349.891 424.655 351.096 427.328 352.526C436.126 357.232 444.574 362.578 452.597 368.68C464.413 377.666 475.944 387.04 486.756 397.395C492.54 402.934 498.475 408.297 503.983 414.161C506.327 416.656 508.597 419.23 510.741 422.096C509.791 423.187 508.992 424.135 508.098 425.094C505.456 427.928 502.863 430.814 500.362 433.791C489.869 446.281 479.355 458.751 469.319 471.672C463.015 479.787 457.392 488.394 452.593 497.602C448.771 504.934 446.452 512.832 445.564 521.169C445.261 524.021 445.273 526.918 445.257 529.796C445.249 531.329 445.766 532.038 446.55 532.099C447.363 532.162 447.858 531.411 447.969 529.938C447.986 529.718 447.98 529.495 447.994 529.274C448.167 526.512 448.275 523.743 448.53 520.99C449.024 515.664 450.446 510.583 452.267 505.62C452.377 505.32 452.507 505.017 452.878 505.124C453.26 505.236 453.243 505.627 453.254 505.939C453.474 511.81 454.164 517.636 454.715 523.476C455.401 530.748 456.082 538.02 456.775 545.292C457.51 553.003 458.328 560.706 458.98 568.426C459.754 577.587 460.94 586.687 462.53 595.718C463.774 602.783 465.278 609.796 466.67 616.832C466.712 617.046 466.763 617.268 466.857 617.46C467.01 617.77 467.27 617.921 467.607 617.891C468.86 617.778 469.359 617.128 469.173 615.79C469.007 614.587 468.828 613.384 468.612 612.19C467.219 604.477 465.526 596.83 464.394 589.057C463.167 580.628 462.119 572.183 461.512 563.676C461.292 560.585 460.962 557.502 460.659 554.419C460.148 549.243 459.606 544.071 459.099 538.894C458.334 531.075 457.56 523.256 456.842 515.432C456.386 510.471 456.007 505.504 455.901 500.514C455.86 498.573 456.243 496.894 457.211 495.197C461.422 487.808 466.061 480.763 471.215 474.093C480.585 461.967 490.449 450.305 500.223 438.557C503.804 434.253 507.501 430.069 511.338 426.026C511.83 425.507 512.193 424.771 513.091 424.643C514.333 425.655 514.951 427.188 515.596 428.682C516.728 431.304 517.503 434.062 518.075 436.876C520.081 446.746 520.954 456.783 521.786 466.817C522.225 472.111 522.42 477.428 522.687 482.737C523.323 495.351 523.745 507.968 523.341 520.606C522.949 532.895 522.653 545.189 522.333 557.481C522.073 567.448 521.919 577.419 521.567 587.382C521.32 594.358 521 601.327 521.151 608.31C521.163 608.864 521.17 609.418 521.181 609.971C521.202 611.087 521.838 611.783 522.614 612.386C522.937 612.638 523.558 612.447 523.605 612.062C523.671 611.517 523.732 610.968 523.74 610.42C523.786 607.209 523.754 603.995 523.863 600.786C524.173 591.709 524.593 582.636 524.867 573.558C525.218 561.932 525.385 550.299 525.785 538.675C526.216 526.161 526.411 513.647 526.254 501.127C526.132 491.377 525.601 481.645 525.043 471.914C524.447 461.515 523.362 451.174 521.793 440.897C520.907 435.091 519.572 429.409 516.73 424.266C516.605 424.041 516.714 423.669 516.714 423.296C522.501 423.141 528.02 421.7 533.425 419.767C542.198 416.629 549.474 411.182 555.012 403.199C555.927 401.881 556.735 400.449 557.408 398.973C558.236 397.155 557.809 394.959 556.398 393.615ZM161.158 414.625C159.1 417.399 156.946 420.091 154.809 422.796C154.482 423.209 154.03 423.52 153.608 423.836C146.745 428.976 139.878 434.111 133.007 439.239C132.684 439.48 132.31 439.643 131.967 439.838C131.465 439.087 131.817 438.458 132.021 437.868C134.974 429.332 138.563 421.131 143.362 413.587C146.588 408.515 150.419 404.044 155.116 400.472C156.299 399.572 157.539 398.788 158.9 398.223C159.683 397.898 160.305 398.11 160.884 398.677C162.509 400.264 163.109 402.379 163.418 404.59C163.931 408.244 163.343 411.678 161.158 414.625ZM231.411 379.512C232.813 380.936 234.141 382.285 235.476 383.641C235.223 383.891 235.098 384.109 234.924 384.172C231.164 385.538 227.31 386.174 223.333 385.855C223.067 385.834 222.903 385.758 222.935 385.474C222.957 385.275 223.004 384.991 223.133 384.907C225.859 383.111 228.598 381.339 231.411 379.512ZM227.253 371.392C227.786 373.296 228.626 375.053 229.594 376.901C229.026 377.364 228.748 377.703 228.066 377.841C225.325 378.395 222.824 379.853 220.996 382.109C219.243 384.274 218.094 384.644 216.789 383.606C215.87 382.875 215.051 382.063 214.442 381.018C213.331 379.111 213.442 378.6 215.332 377.441C218.898 375.254 222.476 373.088 226.05 370.915C226.625 370.565 227.084 370.786 227.253 371.392ZM226.296 356.851C226.235 358.023 226.161 359.078 226.129 360.134C226.091 361.347 226.084 362.56 226.075 363.774C226.066 364.875 226.073 365.975 226.073 367.28C222.158 369.747 218.097 372.257 213.852 374.701C213.912 372.003 214.432 370.439 216.169 367.47C218.709 363.127 222.728 358.873 226.296 356.851ZM246.842 288.346C246.225 288.365 244.463 285.513 244.314 284.857C244.098 284.72 241.905 281.113 241.651 280.359C241.651 280.359 241.651 280.359 241.651 280.359C240.981 279.807 240.697 279.028 240.536 278.176C240.272 277.602 239.869 276.724 239.605 276.151C238.994 275.423 238.758 274.524 238.674 273.556C238.567 273.385 238.532 273.199 238.569 272.998C237.788 272.004 237.686 270.762 237.473 269.56C237.407 269.181 237.34 268.803 237.274 268.424C236.493 266.893 236.262 265.227 236.235 263.511C236.109 262.859 235.911 261.839 235.785 261.187C235.445 260.254 235.46 259.268 235.584 258.266C235.278 253.631 235.292 248.996 235.607 244.363C235.679 244.293 235.705 243.872 235.596 243.694C235.49 240.836 236.048 238.035 236.231 235.201C236.461 233.286 236.69 231.375 236.919 229.46C237.539 226.168 237.304 222.794 237.58 219.469C238.117 221.891 238.172 227.185 237.8 229.21C237.764 229.402 236.331 252.05 236.666 257.008C236.71 257.659 236.677 258.372 236.654 259.029C236.73 260.056 236.806 261.082 236.881 262.109C237.555 263.823 237.655 265.66 237.901 267.466C238.045 267.971 238.275 268.774 238.419 269.278C238.875 270.211 239.035 271.246 239.185 272.285C239.185 272.285 239.185 272.285 239.185 272.285C239.185 272.285 239.185 272.285 239.185 272.285C239.299 272.445 239.345 272.625 239.325 272.826C240.067 273.59 240.168 274.634 240.392 275.625C240.638 276.271 240.884 276.917 241.129 277.563C241.773 278.082 241.929 278.879 242.163 279.632C242.583 280.503 243.004 281.374 243.424 282.244C243.866 282.791 244.35 283.314 244.342 284.114L244.341 284.115C244.784 284.174 246.957 288.098 246.842 288.346ZM281.924 109.299C281.653 109.604 281.407 109.963 280.95 109.954C280.435 110.519 279.88 111.02 279.146 111.23C278.555 111.829 277.939 112.385 277.13 112.622C276.833 113.062 276.485 113.42 275.938 113.446C275.853 113.83 275.597 114.002 275.258 114.068C274.635 115.006 273.73 115.554 272.814 116.086C271.862 117.076 270.887 118.036 269.72 118.738C268.361 120.184 267.01 121.64 265.364 122.726C265.364 122.726 265.364 122.726 265.364 122.726C265.235 123.061 265.026 123.291 264.67 123.327C264.604 123.702 264.373 123.91 264.052 124.027C261.708 126.817 259.257 129.493 256.649 132.002C256.452 132.232 256.254 132.462 256.057 132.691C255.044 134.46 253.692 135.923 252.342 137.387C251.665 138.633 250.861 139.772 249.865 140.748C249.865 140.748 249.865 140.748 249.865 140.748L249.865 140.749C249.6 141.509 249.153 142.13 248.588 142.66C248.154 143.713 247.604 144.681 246.788 145.453C246.788 145.453 246.788 145.453 246.788 145.453L246.788 145.453C246.8 145.701 246.703 145.883 246.497 145.999C246.401 146.23 246.27 146.435 246.099 146.61C246.056 147.01 245.869 147.305 245.536 147.495C245.521 147.476 245.506 147.456 245.491 147.437C245.49 147.439 245.489 147.441 245.488 147.444C245.527 147.665 245.452 147.825 245.264 147.926C245.116 148.16 244.97 148.395 244.827 148.632C244.795 149.175 244.47 149.535 244.141 149.892C243.89 150.147 243.653 150.41 243.626 150.809C242.608 153.023 241.59 155.237 240.572 157.452C240.572 157.452 240.572 157.452 240.572 157.452L240.572 157.452C240.543 158.352 240.104 159.089 239.734 159.853C239.54 160.59 239.433 161.373 239.128 162.053C238.817 162.749 238.992 163.815 237.964 164.035C237.54 163.302 237.725 162.516 237.906 161.795C238.197 160.635 238.449 159.439 239.144 158.443C239.119 157.705 239.472 157.125 239.839 156.553C240.714 153.677 242.057 151.054 243.614 148.546C243.631 148.523 243.649 148.501 243.666 148.478C243.691 148.205 243.839 148.017 244.048 147.872C244.061 147.836 244.078 147.803 244.087 147.764C244.183 147.57 244.279 147.377 244.375 147.182C244.463 146.958 244.586 146.759 244.752 146.591L244.779 146.54C244.798 146.538 244.817 146.537 244.836 146.536C244.913 145.997 245.267 145.639 245.59 145.262C245.726 145.038 245.873 144.822 246.028 144.614L246.041 144.57C246.476 143.53 246.996 142.554 247.843 141.823C247.843 141.823 247.843 141.823 247.843 141.823C248.113 141.074 248.527 140.439 249.127 139.949C249.741 138.655 250.561 137.533 251.585 136.583C252.679 134.895 253.805 133.237 255.373 131.999C255.465 131.666 255.624 131.409 255.987 131.387V131.3C258.149 128.306 260.623 125.647 263.423 123.336L263.506 123.334C263.559 122.944 263.79 122.757 264.135 122.702C264.173 122.319 264.41 122.137 264.724 122.031C265.895 120.374 267.44 119.171 269 117.985C269.886 116.892 270.924 116.004 272.114 115.32C272.816 114.474 273.617 113.777 274.635 113.41C274.951 113.006 275.304 112.667 275.833 112.646C275.833 112.646 275.833 112.646 275.834 112.646L275.833 112.646C275.935 112.239 276.207 112.086 276.575 112.08C277.204 111.33 277.946 110.775 278.876 110.543C278.876 110.543 278.877 110.543 278.877 110.543C278.877 110.543 278.877 110.543 278.877 110.542C279.393 109.879 280.03 109.447 280.851 109.375C281.073 109.187 281.274 108.948 281.525 108.834C281.651 108.777 281.867 108.949 282.042 109.017C282.005 109.113 281.986 109.229 281.924 109.299ZM413.614 123.686C413.484 123.923 413.3 123.945 413.151 123.71C412.939 123.378 412.764 123.018 412.573 122.671C412.38 122.216 412.187 121.761 411.994 121.306C411.794 120.87 411.594 120.434 411.393 119.998C411.393 119.998 411.393 119.998 411.393 119.998C411.001 119.341 410.608 118.684 410.216 118.028C410.216 118.028 410.216 118.028 410.216 118.027L410.216 118.028C410.139 117.81 410.061 117.592 409.983 117.375C409.358 117.219 409.26 116.614 409.041 116.111C408.465 115.511 407.944 114.87 407.691 114.03C407.55 113.832 407.409 113.634 407.269 113.437C406.739 113.157 406.455 112.664 406.252 112.1C405.461 111.356 404.869 110.451 404.389 109.457C403.57 108.333 402.75 107.208 401.932 106.084C401.026 105.05 400.037 104.088 399.427 102.796C399.427 102.796 399.427 102.796 399.427 102.795C399.243 102.565 399.058 102.334 398.874 102.104C396.351 99.695 393.841 97.269 391.297 94.8854C390.069 93.7346 388.776 92.6627 387.513 91.5552C387.152 91.3529 386.768 91.188 386.434 90.9431C378.337 84.9943 369.482 80.9626 359.857 78.8673C359.557 78.8018 359.263 78.6957 358.967 78.6083C358.518 78.7299 358.121 78.647 357.794 78.278C357.183 78.2003 356.572 78.1226 355.961 78.0449C353.904 77.8137 351.847 77.5824 349.79 77.3514L349.213 77.3603C345.674 77.3719 342.134 77.3834 338.595 77.395C338.153 77.406 337.712 77.4169 337.27 77.4279C337.27 77.4276 337.27 77.4273 337.27 77.427C337.27 77.4273 337.269 77.4276 337.269 77.4279C336.742 77.4663 336.215 77.5047 335.688 77.5431C335.686 77.5443 335.684 77.5446 335.682 77.5458C334.83 78.023 333.922 78.1692 332.971 78.0589C331.727 78.2113 330.553 78.8271 329.268 78.6991C328.688 78.7716 328.109 78.8438 327.529 78.9163L327.483 78.9608C326.749 79.6205 325.853 79.5352 324.986 79.5818C324.278 80.2911 323.354 80.1619 322.503 80.3188C322.013 81.0068 321.275 80.8727 320.609 80.9782C320.608 80.9779 320.608 80.9776 320.608 80.9769C320.608 80.9776 320.608 80.9779 320.608 80.9785C319.885 81.6695 318.917 81.6311 318.072 81.9568C317.292 82.2573 316.513 82.5574 315.734 82.8578C315.002 83.6348 314.103 84.019 313.093 84.1393C313.089 84.1415 312.853 84.2834 312.853 84.2834C312.853 84.2834 311.88 84.9108 311.4 84.9946C310.955 85.6308 309.649 86.235 309.649 86.235C309.649 86.235 309.649 86.2353 309.65 86.2353C309.546 86.667 307.644 88.5912 307.477 88.7307C307.221 89.1823 306.988 89.653 306.69 90.0717C306.62 90.1704 306.299 90.1615 306.16 90.0768C306.038 90.0028 305.922 89.7304 305.954 89.5838C306.097 88.9394 306.383 88.38 306.991 88.0927C307.326 87.6338 307.602 87.1055 308.179 86.9309C308.179 86.9309 308.179 86.9309 308.179 86.9312L308.179 86.9309C308.264 86.6034 308.434 86.3736 308.773 86.3355C308.773 86.3355 308.773 86.3355 308.773 86.3358C308.773 86.3355 308.773 86.3355 308.773 86.3352C308.94 86.2191 309.108 86.1028 309.275 85.9867C309.716 85.1192 310.47 84.689 311.282 84.3398C311.656 84.0114 312.002 83.629 312.534 83.611C312.729 83.4992 312.924 83.3874 313.119 83.2752C313.587 82.6013 314.283 82.4056 314.997 82.2454C314.997 82.2454 314.998 82.2457 314.998 82.246C314.998 82.2457 314.997 82.2457 314.997 82.2454C315.738 81.898 318.991 80.3207 319.991 80.1814C320.606 79.9115 321.161 79.423 321.893 79.5723C322.868 79.196 323.803 78.6424 324.897 78.7884C324.897 78.7884 324.928 78.7853 324.929 78.7853C325.624 78.0897 326.508 78.1257 327.367 78.0638C328.202 77.346 329.174 77.3399 330.167 77.4492C330.832 76.8386 331.617 76.7893 332.435 76.8904C332.435 76.8904 332.435 76.8904 332.435 76.8904C333.006 76.8088 333.576 76.7274 334.147 76.6458C334.703 76.1717 335.332 76.1494 335.988 76.3015C337.272 76.2125 338.556 76.1238 339.84 76.0352C342.955 75.4231 346.07 75.3856 349.185 76.0148C351.328 76.0964 353.497 75.9115 355.571 76.7131C355.571 76.7131 355.571 76.7131 355.572 76.7131C355.571 76.7131 355.95 76.7753 355.95 76.7753C355.95 76.7753 355.95 76.7756 355.95 76.7756V76.7753C357.152 76.7853 358.379 76.6406 359.449 77.4435C360.717 77.2369 361.885 77.7286 363.084 78.0278C372.144 80.2896 380.344 84.5546 387.939 90.2301C388.099 90.3501 388.203 90.5567 388.333 90.7231C392.61 93.6195 396.392 97.1063 399.49 101.413C399.823 101.503 399.996 101.754 400.086 102.089C401.183 102.959 401.914 104.153 402.612 105.376C403.561 106.379 404.393 107.481 405.046 108.731C405.766 109.531 406.478 110.338 406.825 111.421C406.935 111.617 407.044 111.813 407.153 112.009C407.688 112.302 407.995 112.771 408.088 113.403C408.175 113.596 408.261 113.79 408.347 113.983C409.039 114.438 409.393 115.137 409.588 115.952L409.587 115.952C409.588 115.952 409.588 115.952 409.588 115.952C410.142 116.247 410.386 116.771 410.511 117.383C410.595 117.587 410.679 117.79 410.763 117.993C410.763 117.994 410.764 117.994 410.764 117.995C411.449 118.479 411.835 119.146 411.859 120.036C412.501 120.219 412.516 120.804 412.595 121.349C413.209 121.56 413.19 122.147 413.279 122.669C413.279 122.669 413.279 122.669 413.279 122.67C413.417 122.917 413.566 123.158 413.685 123.415C413.713 123.479 413.658 123.605 413.614 123.686ZM441.783 344.608C441.172 344.424 440.566 344.232 440.362 343.467C440.167 343.48 440.013 343.402 439.899 343.232C439.345 342.991 438.566 342.331 438.566 342.331L438.486 342.204C438.487 342.197 438.439 342.104 438.439 342.099C438.241 342.059 438.176 341.968 437.979 341.929C437.584 341.721 437.19 341.513 436.795 341.306C436.184 341.148 435.603 340.944 435.365 340.222C435.18 340.193 435.037 340.097 434.934 339.931C434.332 339.729 433.359 338.897 433.359 338.897L433.174 338.778C432.747 338.769 432.054 338.114 432.054 338.114C432.054 338.114 431.842 337.93 431.84 337.929C431.271 337.692 430.11 336.662 429.92 336.619C429.517 336.407 429.115 336.195 428.712 335.983C428.104 335.819 427.514 335.631 427.279 334.902C427.097 334.884 426.96 334.792 426.867 334.625C426.25 334.436 425.247 333.589 425.247 333.589L425.109 333.474C424.684 333.465 424.345 333.326 424.252 332.819C424.046 332.867 423.882 332.8 423.763 332.615C423.184 332.391 422.081 331.506 422.081 331.506L421.875 331.305C421.24 331.152 420.681 330.877 420.364 330.217L420.365 330.217C420.363 330.217 420.154 330.182 420.154 330.182C419.729 330.151 419.368 330.025 419.272 329.504C419.064 329.561 418.903 329.492 418.788 329.3C418.187 329.113 417.579 328.936 417.355 328.191C417.346 328.191 416.913 328.001 416.913 328.001C416.273 327.86 415.724 327.582 415.449 326.891C415.439 326.891 415.058 326.704 415.058 326.704C414.4 326.574 413.358 325.574 413.358 325.574L413.199 325.377C412.553 325.233 412.021 324.93 411.78 324.217C411.583 324.107 411.388 323.998 411.192 323.889C410.915 323.908 410.776 323.754 410.734 323.475C410.072 323.313 409.56 322.949 409.301 322.248C409.109 322.124 408.918 322 408.727 321.876C408.549 321.734 408.37 321.593 408.191 321.451C407.357 321.147 406.743 320.551 406.261 319.78C405.949 319.603 405.632 319.429 405.56 319.003C405.038 318.893 404.697 318.55 404.478 318.049C404.095 317.989 403.885 317.721 403.752 317.36C403.384 317.335 403.222 317.071 403.12 316.737C402.751 316.707 402.584 316.449 402.495 316.103C402.13 316.068 401.962 315.822 401.894 315.466C401.894 315.466 401.894 315.465 401.894 315.465C401.894 315.465 401.894 315.465 401.893 315.465C401.327 315.238 400.938 314.824 400.739 314.211C400.739 314.21 400.739 314.21 400.739 314.21C400.739 314.21 400.739 314.21 400.738 314.21C400.412 314.112 400.174 313.925 400.145 313.529C400.145 313.529 400.145 313.529 400.145 313.528C400.145 313.528 400.145 313.528 400.144 313.528C399.832 313.425 399.59 313.251 399.571 312.86C399.252 312.737 399.015 312.535 398.973 312.146C398.973 312.146 398.973 312.146 398.973 312.146L398.973 312.146C398.973 312.146 398.864 312.004 398.864 312.003C398.756 311.936 398.691 311.869 398.662 311.799C398.526 311.662 398.391 311.525 398.255 311.389C397.363 310.773 396.797 309.866 396.312 308.888C395.525 308.123 394.942 307.205 394.523 306.164C393.998 305.577 393.543 304.946 393.378 304.127C393.209 304.009 393.14 303.844 393.171 303.631C392.294 302.653 391.828 301.444 391.469 300.174C391.167 299.54 390.707 298.965 390.821 298.176C390.347 297.191 390.014 296.166 390.042 295.039C389.592 294.506 389.558 293.833 389.511 293.173C389.266 289.734 389.265 286.312 390.214 282.967C390.247 282.514 390.414 282.147 390.896 282.237C391.409 282.332 391.352 282.803 391.267 283.187C391.182 283.579 391.013 283.95 390.881 284.33C390.819 287.409 390.759 290.488 390.697 293.568C390.95 294.85 391.204 296.133 391.457 297.416C392.004 297.902 392.09 298.579 392.13 299.275C392.674 300.479 393.218 301.683 393.762 302.887C393.923 303.008 393.987 303.173 393.954 303.38C394.607 303.878 394.899 304.628 395.176 305.389C395.977 306.16 396.493 307.15 397.006 308.141C397.744 308.938 398.476 309.74 398.868 310.814C399.052 311.081 399.236 311.347 399.42 311.613C399.884 311.826 400.179 312.196 400.311 312.717C400.311 312.717 400.311 312.717 400.311 312.717L400.311 312.717C400.669 312.785 400.835 313.041 400.893 313.402C401.262 313.455 401.432 313.712 401.497 314.076C401.843 314.082 402.003 314.28 402.009 314.639C402.355 314.713 402.583 314.912 402.628 315.306C402.974 315.382 403.206 315.578 403.247 315.976C403.592 316.046 403.831 316.23 403.87 316.633C404.217 316.695 404.459 316.875 404.5 317.278C404.908 317.372 405.182 317.624 405.307 318.054C405.306 318.054 405.306 318.054 405.305 318.054C405.306 318.054 405.307 318.054 405.308 318.054C405.533 318.014 405.66 318.115 405.69 318.357C405.883 318.517 406.077 318.678 406.271 318.839C407.082 319.207 407.719 319.793 408.188 320.59V320.591C408.51 320.71 408.807 320.858 408.855 321.281C409.051 321.412 409.248 321.542 409.445 321.674C409.445 321.674 409.445 321.674 409.444 321.674C409.445 321.674 409.445 321.674 409.445 321.674C409.94 321.889 410.427 322.116 410.622 322.718C410.622 322.718 410.622 322.718 410.622 322.718C410.984 322.736 411.265 322.864 411.31 323.306C411.521 323.433 411.733 323.559 411.945 323.686C411.945 323.686 411.944 323.687 411.944 323.687C411.945 323.687 411.945 323.687 411.945 323.687C412.422 323.918 412.71 324.279 413.121 324.713C413.122 324.713 413.122 324.714 413.122 324.714C413.511 324.728 413.764 325.208 413.894 325.329C413.991 325.427 414.819 325.526 414.981 326.105C415.375 326.074 415.657 326.211 415.729 326.669C415.703 326.687 415.705 326.689 415.73 326.669C416.245 326.697 416.682 326.854 416.843 327.456C417.248 327.405 417.534 328.069 417.62 328.009C418.132 328.016 418.585 328.117 418.703 328.767C418.94 328.85 419.176 328.933 419.413 329.016C419.578 329.15 419.743 329.284 419.908 329.418C419.909 329.418 419.909 329.419 419.909 329.419C419.909 329.419 419.909 329.418 419.909 329.418C420.277 329.432 420.577 329.536 420.589 330.016C421.142 330.042 423.536 331.418 423.669 332.116C423.914 332.187 424.107 332.299 424.351 332.371C424.508 332.506 424.718 332.601 424.875 332.736C424.875 332.737 424.875 332.737 424.876 332.737C424.876 332.737 424.876 332.737 424.875 332.737C425.242 332.761 425.554 332.855 425.553 333.346C426.111 333.362 426.596 333.503 426.783 334.161C426.783 334.161 427.187 334.218 427.389 334.247C427.389 334.247 427.389 334.247 427.389 334.247C427.898 334.453 428.473 334.559 428.669 335.23C428.669 335.23 428.669 335.23 428.669 335.23C429.158 335.415 429.638 335.613 429.877 336.167C429.877 336.167 432.23 337.613 432.471 337.678C432.632 337.81 432.793 337.943 432.954 338.075C432.954 338.075 432.954 338.076 432.954 338.076C432.954 338.076 432.954 338.076 432.954 338.075C433.327 338.094 435.254 339.551 435.452 339.573C435.452 339.573 435.452 339.573 435.453 339.573C435.957 339.803 436.561 339.888 436.733 340.595C436.733 340.595 436.733 340.595 436.733 340.595C437.245 340.733 437.658 341.022 437.943 341.505V341.504C438.416 341.685 439.073 342.169 439.073 342.169C439.074 342.174 439.609 342.235 439.822 342.857C440.247 342.723 440.483 342.94 440.62 343.346C440.622 343.346 440.622 343.346 440.622 343.346C441.14 343.273 441.559 343.382 441.692 344.015C441.933 344.073 442.233 344.081 442.208 344.452C442.203 344.514 441.931 344.556 441.783 344.608ZM454.576 276.476C454.449 276.462 454.348 276.17 454.236 276.003C453.742 275.859 453.615 275.466 453.63 274.978C452.972 274.347 452.736 273.492 452.54 272.617C452.146 271.516 451.752 270.415 451.357 269.315C451.148 268.652 450.939 267.991 450.73 267.329C450.624 266.906 450.518 266.484 450.412 266.062C450.412 266.062 450.411 266.062 450.411 266.061C449.717 265.29 449.638 264.281 449.478 263.303C449.306 262.416 448.716 261.648 448.825 260.681C448.743 260.261 448.661 259.841 448.578 259.421C447.959 258.416 447.749 257.274 447.606 256.111C447.602 256.116 447.598 256.121 447.594 256.127C447.438 255.965 447.393 255.773 447.456 255.55C447.473 255.504 447.487 255.456 447.501 255.409C447.486 255.419 447.473 255.431 447.456 255.441C446.746 254.175 446.551 252.754 446.373 251.327C446.308 250.945 446.243 250.563 446.178 250.181C445.439 248.681 445.127 247.065 445.038 245.388C444.799 244.512 444.32 243.693 444.476 242.722C444.408 242.352 444.339 241.981 444.27 241.611C443.713 241.018 443.71 240.271 443.733 239.517L443.62 239.379L443.708 239.216C443.707 239.215 443.707 239.215 443.707 239.214C443.196 238.483 443.106 237.45 443.152 236.86C443.015 236.725 442.98 236.565 443.049 236.38C443.062 236.334 443.074 236.288 443.083 236.242C443.071 236.251 443.062 236.261 443.049 236.27C442.307 234.512 442.199 232.615 441.992 230.74C441.932 230.162 441.873 229.583 441.813 229.004C441.41 228.082 441.192 227.126 441.358 226.102C441.304 225.492 441.25 224.881 441.196 224.27C440.782 223.365 440.603 222.42 440.774 221.416C440.699 220.384 440.624 219.352 440.549 218.32C439.836 216.418 439.956 214.413 439.91 212.428C439.205 209.718 439.207 206.91 438.916 204.143C438.867 203.269 438.819 202.395 438.77 201.521C438.061 200.102 438.144 198.54 438.064 197.009C437.274 195.303 437.304 193.421 437.04 191.601C437.036 191.607 437.032 191.612 437.027 191.617C436.984 190.972 436.94 190.327 436.897 189.681C436.923 189.681 436.95 189.68 436.976 189.68C436.95 189.649 436.923 189.614 436.897 189.572C436.199 188.573 436.204 187.42 436.263 186.255C435.397 185.07 435.602 183.564 435.214 182.237C435.167 181.84 435.12 181.443 435.073 181.046C435.068 181.038 435.063 181.033 435.058 181.024C434.46 180.291 434.389 179.394 434.37 178.481C434.408 178.433 434.445 178.386 434.483 178.337C434.449 178.352 434.412 178.364 434.37 178.371C433.56 177.363 433.657 176.048 433.337 174.873C433.131 174.003 432.925 173.134 432.72 172.264C432.627 171.836 432.534 171.407 432.442 170.979C431.64 170.254 431.808 169.146 431.496 168.228C431.418 167.842 431.34 167.455 431.262 167.069C430.53 166.305 430.573 165.237 430.306 164.29C430.298 164.3 430.29 164.309 430.283 164.319C430.021 163.355 429.788 162.493 429.581 161.731C429.444 161.569 429.392 161.381 429.424 161.166C429.463 161.118 429.498 161.075 429.534 161.032C429.501 161.043 429.466 161.053 429.424 161.056C428.664 160.333 428.745 159.245 428.397 158.344C428.387 158.356 428.378 158.368 428.369 158.381C428.167 157.711 427.965 157.041 427.763 156.371C427.619 156.184 427.588 155.978 427.672 155.752C427.305 155.169 426.941 154.586 426.957 153.841C426.11 152.438 425.509 150.916 425.045 149.328C425.045 149.328 425.045 149.327 425.044 149.327C424.446 148.714 424.211 147.914 424.033 147.084C424.078 146.909 424.092 146.605 424.172 146.584C424.521 146.491 424.61 146.823 424.728 147.083C425.218 147.245 425.253 147.675 425.257 148.122C426.278 149.659 426.987 151.354 427.471 153.161C427.748 154.024 428.316 154.778 428.308 155.747C428.864 156.161 428.954 156.782 428.994 157.425C428.997 157.425 428.998 157.423 429.001 157.423C429.661 158.274 429.777 159.338 429.996 160.36C429.929 160.442 429.888 160.548 429.846 160.653C429.899 160.588 429.949 160.526 429.996 160.47C430.056 160.888 430.116 161.306 430.177 161.724C430.798 162.141 430.764 162.83 430.84 163.475C430.846 163.474 430.849 163.472 430.854 163.472C431.629 164.257 431.557 165.374 431.84 166.353C431.905 166.739 431.97 167.125 432.036 167.511C432.829 168.509 432.833 169.791 433.126 170.97C433.173 171.398 433.219 171.826 433.266 172.255C433.962 172.701 433.84 173.466 433.911 174.156C434.72 175.164 434.64 176.472 434.936 177.653C434.891 177.733 434.856 177.822 434.819 177.911C434.858 177.861 434.897 177.812 434.936 177.763C435.137 178.716 435.358 179.768 435.599 180.916C435.606 180.916 435.614 180.916 435.622 180.916C435.676 181.349 435.73 181.781 435.785 182.214C435.785 182.214 435.785 182.214 435.785 182.214C436.631 183.406 436.552 184.874 436.834 186.234C437.029 187.347 437.552 188.388 437.476 189.562C437.45 189.605 437.423 189.641 437.397 189.673C437.423 189.672 437.45 189.672 437.476 189.672C437.513 189.948 437.562 190.32 437.624 190.782C437.629 190.781 437.633 190.778 437.638 190.777C438.489 192.494 438.451 194.407 438.698 196.257C438.798 198.031 439.488 199.721 439.354 201.528C439.408 202.142 439.462 202.757 439.516 203.371C439.644 203.655 439.854 203.927 439.888 204.223C440.138 206.43 440.353 208.642 440.579 210.852C440.725 212.859 441.314 214.813 441.195 216.851C441.259 217.67 441.323 218.488 441.388 219.306C441.873 220.199 441.97 221.162 441.83 222.167C441.884 222.768 441.937 223.369 441.991 223.97C441.991 223.97 441.991 223.971 441.991 223.971C442.365 224.636 442.511 225.354 442.423 226.125C442.438 226.35 442.453 226.575 442.469 226.8C442.531 227.383 442.593 227.967 442.654 228.55C443.327 230.341 443.422 232.253 443.672 234.132C443.614 234.202 443.573 234.278 443.542 234.357C443.581 234.318 443.624 234.279 443.672 234.242C443.895 235.598 444.515 236.981 444.461 238.601C444.84 239.268 445.083 239.967 444.935 240.766C444.935 240.766 444.935 240.766 444.935 240.766C444.935 240.766 444.935 240.766 444.935 240.766C444.987 241.15 445.039 241.534 445.091 241.918C445.706 242.692 445.672 243.646 445.735 244.573C446.437 245.869 446.581 247.322 446.763 248.764C446.829 249.147 446.895 249.53 446.961 249.913C447.661 251.202 447.856 252.637 448.014 254.082C447.952 254.152 447.911 254.232 447.882 254.318C447.921 254.273 447.964 254.231 448.014 254.192C448.047 254.46 448.092 254.824 448.148 255.277C448.153 255.276 448.156 255.273 448.161 255.272C448.849 256.536 449.065 257.944 449.248 259.362C449.33 259.789 449.41 260.215 449.491 260.642C450.107 261.13 450.014 261.862 450.066 262.546C450.832 263.563 450.816 264.85 451.113 266.029C451.169 266.458 451.224 266.888 451.279 267.318C451.978 267.808 451.929 268.564 451.899 269.314C452.652 270.282 452.941 271.444 453.114 272.653C453.652 272.86 453.73 273.358 453.788 273.868C453.788 273.868 453.788 273.869 453.788 273.869C454.386 274.444 454.59 275.232 454.797 276.017C454.914 276.281 454.834 276.505 454.576 276.476ZM526.077 389.752C525.901 390.819 525.283 391.441 524.335 391.73C523.812 392.301 523.163 392.536 522.43 392.547C521.833 393.206 521.088 393.203 520.319 393.094C520.102 393.106 519.885 393.118 519.668 393.13C518.582 393.941 517.367 393.801 516.153 393.673C516.153 393.673 516.152 393.673 516.152 393.673C512.283 393.988 508.415 394.23 504.546 393.69C504.545 393.69 504.545 393.689 504.545 393.689C503.877 393.864 503.228 393.777 502.592 393.517C501.788 393.329 500.985 393.14 500.181 392.952C499.495 392.87 498.866 392.661 498.417 392.028C499.109 391.564 499.694 391.569 500.116 392.409C501.448 392.361 502.761 392.447 504.006 393.026C504.159 392.915 504.286 392.942 504.385 393.107C506.837 393.069 509.288 393.031 511.739 392.993C511.739 392.992 511.74 392.992 511.741 392.992C513.204 392.469 514.712 392.451 516.229 392.537C516.229 392.537 516.229 392.537 516.23 392.537C517.238 392.44 518.247 392.343 519.257 392.246C519.877 391.753 520.578 391.71 521.307 391.813C521.308 391.814 521.308 391.814 521.308 391.814C521.308 391.814 521.308 391.813 521.308 391.813C522.098 391.557 522.887 391.3 523.675 391.044C524.122 390.631 524.568 390.218 525.014 389.805C525.333 388.506 524.812 387.498 524.033 386.586C523.294 385.721 522.544 384.866 521.798 384.007C521.464 383.871 521.171 383.693 521.133 383.255C520.736 383.21 520.48 382.993 520.4 382.563C520.53 382.503 520.642 382.416 520.736 382.303C520.624 382.389 520.512 382.476 520.399 382.562C520.165 382.616 520.014 382.52 519.946 382.275C519.765 382.129 519.583 381.982 519.402 381.836C519.396 381.845 519.392 381.854 519.386 381.864C518.551 381.524 517.928 380.914 517.449 380.122C517.108 379.933 516.774 379.736 516.698 379.276C516.804 379.226 516.893 379.153 516.966 379.057C516.876 379.13 516.787 379.203 516.698 379.276C516.463 379.339 516.304 379.248 516.221 379.005C515.981 378.811 515.742 378.616 515.503 378.421C515.218 378.487 515.094 378.329 515.051 378.056C515.051 378.055 515.05 378.055 515.05 378.055C514.711 377.907 514.391 377.738 514.339 377.285C513.976 377.232 513.717 377.064 513.7 376.626C513.687 376.611 513.68 376.597 513.668 376.583C513.279 376.552 513.066 376.452 512.969 375.95C512.967 375.952 512.964 375.954 512.961 375.956C512.726 376.014 512.572 375.92 512.499 375.674C512.269 375.472 512.038 375.27 511.808 375.068C511.521 375.131 511.397 374.959 511.337 374.696C511.336 374.695 511.336 374.695 511.336 374.695C510.987 374.581 510.69 374.405 510.621 373.973C510.277 373.896 510.022 373.723 509.99 373.308C509.631 373.254 509.384 373.077 509.367 372.652C508.981 372.607 508.726 372.412 508.684 371.972C508.739 371.904 508.805 371.847 508.868 371.788C508.807 371.85 508.746 371.911 508.684 371.972C508.296 371.951 508.068 371.741 508.013 371.324C508.12 371.251 508.215 371.163 508.297 371.059C508.202 371.147 508.108 371.236 508.013 371.324C507.858 371.211 507.704 371.097 507.549 370.983C507.019 370.742 506.588 370.388 506.361 369.798C505.981 369.723 505.77 369.452 505.639 369.088C505.637 369.097 505.636 369.105 505.635 369.114C505.269 369.075 505.109 368.804 505.001 368.474C504.635 368.436 504.478 368.167 504.375 367.835C504.008 367.795 503.846 367.53 503.752 367.19C503.385 367.142 503.221 366.876 503.131 366.531C502.769 366.485 502.608 366.226 502.526 365.881C502.526 365.881 502.526 365.88 502.526 365.88C502.525 365.88 502.525 365.88 502.525 365.88C501.972 365.655 501.596 365.243 501.394 364.647C501.394 364.647 501.394 364.647 501.395 364.647C501.394 364.647 501.394 364.647 501.393 364.647C501.072 364.545 500.829 364.361 500.788 363.971C500.788 363.971 500.788 363.971 500.788 363.97C500.788 363.97 500.788 363.97 500.787 363.97C500.47 363.868 500.228 363.687 500.188 363.299C500.189 363.299 500.189 363.299 500.189 363.299C500.189 363.299 500.188 363.299 500.188 363.299C499.872 363.19 499.627 363.008 499.586 362.619C499.586 362.619 499.586 362.619 499.586 362.618C499.586 362.618 499.586 362.618 499.585 362.618C499.244 362.491 499 362.268 498.931 361.869C498.381 361.626 498.045 361.168 497.817 360.602C497.817 360.602 497.817 360.602 497.817 360.602C497.817 360.602 497.817 360.602 497.817 360.602C497.7 360.43 497.584 360.258 497.467 360.087C497.468 360.086 497.468 360.086 497.469 360.085C497.099 360.028 496.91 359.793 496.887 359.396C496.485 359.343 496.295 359.075 496.244 358.667C495.839 358.633 495.673 358.312 495.52 357.976C494.541 357.287 493.795 356.377 493.275 355.253C493.015 355.136 492.808 354.975 492.819 354.632C492.819 354.631 492.819 354.631 492.819 354.631C492.819 354.631 492.819 354.631 492.818 354.631C492.582 354.555 492.478 354.385 492.507 354.123C492.119 354.038 491.936 353.761 491.884 353.361C491.49 353.318 491.341 353.01 491.227 352.664C490.471 352.166 489.927 351.479 489.608 350.591C489.418 350.503 489.348 350.352 489.398 350.138C488.993 350.038 488.822 349.69 488.656 349.337C487.94 348.824 487.419 348.145 487.127 347.273C486.934 347.162 486.843 346.989 486.856 346.755C486.488 346.667 486.354 346.357 486.248 346.021C485.674 345.724 485.326 345.242 485.207 344.571C484.935 344.169 484.663 343.767 484.39 343.365C483.813 343.116 483.563 342.572 483.331 342.013C482.558 341.245 481.961 340.343 481.538 339.309C481.055 338.693 480.53 338.107 480.332 337.296C479.546 336.293 478.829 335.243 478.36 334.023C477.361 332.816 476.578 331.466 476.019 329.967C475.857 329.848 475.786 329.684 475.804 329.474C474.947 328.746 474.616 327.671 474.187 326.661C473.645 325.83 473.12 324.991 472.908 323.979C472.927 323.956 472.946 323.932 472.965 323.909C472.941 323.906 472.92 323.905 472.895 323.901C472.208 322.701 471.503 321.434 471.063 319.935C470.891 319.823 470.825 319.665 470.852 319.465C470.217 318.999 470.07 318.198 469.771 317.528C467.094 311.54 464.871 305.358 463.027 299.022C462.786 298.193 462.673 297.32 462.519 296.464C462.507 296.393 462.63 296.231 462.705 296.219C462.889 296.19 463.213 296.158 463.25 296.242C463.597 297.04 463.921 297.852 464.203 298.679C465.656 302.932 467.052 307.207 468.555 311.439C469.424 313.887 470.454 316.269 471.413 318.681C471.417 318.675 471.422 318.67 471.426 318.665C471.601 318.811 471.652 318.997 471.577 319.222C472.452 320.403 473.011 321.76 473.497 323.159C473.509 323.191 473.515 323.216 473.525 323.245C473.975 323.45 474.103 323.851 474.099 324.335C474.104 324.507 474.144 324.656 474.207 324.791C474.274 324.888 474.335 324.983 474.384 325.071C474.469 325.179 474.566 325.28 474.667 325.378C474.812 325.437 474.855 325.543 474.797 325.697C475.549 326.58 476.024 327.627 476.39 328.741C476.547 328.869 476.61 329.037 476.582 329.246C477.587 330.472 478.324 331.874 478.933 333.36C479.582 334.467 480.23 335.575 480.878 336.682C481.495 337.171 481.836 337.869 482.147 338.59C482.913 339.373 483.543 340.257 483.902 341.339C483.901 341.34 483.9 341.342 483.899 341.343C483.9 341.342 483.901 341.34 483.902 341.339C484.023 341.54 484.144 341.742 484.266 341.944C484.756 342.263 485.118 342.681 485.189 343.323L485.175 343.411C485.644 343.657 485.884 344.098 486.059 344.594C486.605 344.881 486.947 345.337 487.056 345.984C487.199 346.195 487.342 346.407 487.485 346.618C487.485 346.618 487.484 346.619 487.484 346.619C487.485 346.619 487.485 346.619 487.485 346.619C487.653 346.832 487.823 347.046 487.992 347.259C487.993 347.26 487.993 347.26 487.994 347.261C488.694 347.781 489.207 348.457 489.506 349.315C489.701 349.401 489.771 349.554 489.715 349.771C489.715 349.772 489.715 349.772 489.715 349.772C490.122 349.876 490.293 350.23 490.463 350.585C491.18 351.097 491.721 351.764 492.034 352.632C492.186 352.845 492.338 353.058 492.49 353.27L492.49 353.271C492.49 353.271 492.49 353.271 492.49 353.271C492.596 353.445 492.701 353.62 492.807 353.795C492.762 353.845 492.717 353.894 492.672 353.944C492.717 353.895 492.759 353.842 492.807 353.796C493.206 353.87 493.378 354.158 493.433 354.557C493.83 354.59 493.979 354.898 494.096 355.242C495.093 355.919 495.801 356.871 496.364 357.964C496.523 358.174 496.683 358.385 496.842 358.596C496.842 358.596 496.842 358.596 496.842 358.596C496.842 358.596 496.842 358.596 496.842 358.596C497.083 358.651 497.19 358.81 497.161 359.073C497.07 359.18 496.979 359.288 496.889 359.396C496.991 359.3 497.082 359.193 497.161 359.073C497.534 359.145 497.736 359.383 497.764 359.789C497.763 359.79 497.762 359.791 497.762 359.791C498.157 359.855 498.349 360.125 498.405 360.531C498.778 360.513 498.933 360.72 498.918 361.102C499.327 361.178 499.552 361.443 499.619 361.874C500.007 361.902 500.183 362.156 500.235 362.54C500.62 362.574 500.793 362.829 500.848 363.209C501.23 363.243 501.408 363.494 501.469 363.872C501.845 363.912 502.024 364.164 502.087 364.538C502.443 364.548 502.622 364.748 502.636 365.124C502.984 365.193 503.212 365.391 503.255 365.787C503.604 365.858 503.833 366.055 503.876 366.452C504.224 366.523 504.456 366.716 504.496 367.116C504.845 367.184 505.081 367.373 505.116 367.778C505.46 367.84 505.692 368.021 505.734 368.407C505.735 368.406 505.737 368.405 505.738 368.404C506.095 368.461 506.335 368.646 506.362 369.061C506.763 369.134 507.009 369.373 507.074 369.811C507.437 369.796 507.633 369.964 507.613 370.371C507.613 370.371 507.613 370.371 507.614 370.371C507.997 370.423 508.249 370.626 508.298 371.059C508.676 371.083 508.901 371.291 508.965 371.693C508.965 371.693 508.965 371.693 508.965 371.693C509.215 371.666 509.371 371.782 509.432 372.043C509.781 372.076 509.952 372.331 510.08 372.639C510.442 372.664 510.611 372.935 510.75 373.244C511.021 373.219 511.192 373.331 511.217 373.639C511.554 373.79 511.872 373.959 511.931 374.406C512.279 374.473 512.543 374.631 512.562 375.061C512.562 375.061 512.562 375.061 512.562 375.061C512.929 375.109 513.189 375.282 513.236 375.699C513.237 375.697 513.239 375.696 513.241 375.694C513.424 375.81 513.607 375.925 513.79 376.041C513.787 376.055 513.785 376.07 513.782 376.084C513.785 376.084 513.787 376.082 513.79 376.082C514.006 376.269 514.223 376.457 514.439 376.645C514.733 376.608 514.885 376.77 514.948 377.058C515.301 377.137 515.585 377.299 515.652 377.725C515.993 377.807 516.266 377.962 516.282 378.394C516.282 378.394 516.282 378.394 516.282 378.394C516.657 378.442 516.93 378.609 516.968 379.057C517.187 378.991 517.352 379.064 517.464 379.277C518.269 379.636 518.929 380.183 519.382 380.993C519.382 380.993 519.382 380.993 519.382 380.994C519.382 380.98 519.382 380.966 519.382 380.952C519.703 381.071 519.997 381.217 520.022 381.648C520.395 381.698 520.667 381.874 520.74 382.302C520.911 382.421 521.081 382.538 521.252 382.657C521.565 382.648 521.709 382.867 521.818 383.135C523.339 383.999 524.441 385.363 525.498 386.757C525.856 387.229 526.266 387.758 526.129 388.474C526.27 388.906 526.279 389.334 526.077 389.752Z" fill="black"/>
<path d="M446.523 250.965C446.473 251.085 446.423 251.206 446.372 251.327C446.456 251.222 446.497 251.097 446.523 250.965ZM427.763 156.37C427.852 156.181 427.936 155.99 428.014 155.795C428.013 155.794 428.307 155.747 428.308 155.746L428.158 155.686L428.009 155.751C427.897 155.751 427.784 155.751 427.671 155.751C427.784 155.756 427.897 155.756 428.01 155.751C427.927 155.957 427.845 156.163 427.763 156.37ZM525.284 389.749C525.284 389.749 525.284 389.749 525.284 389.749C525.401 389.75 525.517 389.751 525.633 389.752L525.451 389.743C525.451 389.743 525.325 389.748 525.284 389.749ZM484.762 344.571C484.847 344.498 484.931 344.426 485.016 344.352C485.164 344.366 485.302 344.408 485.431 344.476C485.219 344.34 485.007 344.203 484.795 344.067C484.667 344.227 484.655 344.394 484.762 344.571Z" fill="black"/>
<path d="M284.367 177.69C283.616 175.606 282.503 173.753 280.638 172.542C278.283 171.013 275.921 171.46 274.434 173.905C272.945 176.352 271.995 179.021 272.128 181.562C272.151 184.894 272.892 187.466 274.19 189.167C276.078 191.641 278.928 192.109 281.358 190.271C282.022 189.769 282.695 189.161 283.122 188.437C285.1 185.083 285.731 181.479 284.367 177.69ZM278.48 183.746C278.297 184.158 277.959 184.44 277.529 184.453C277.104 184.466 276.741 184.247 276.522 183.834C275.801 182.474 275.445 181.012 275.474 179.241C275.483 179.119 275.488 178.789 275.529 178.465C275.653 177.486 276.165 176.759 276.708 176.791C277.502 176.838 278.085 177.325 278.382 178.038C279.161 179.908 279.333 181.831 278.48 183.746ZM281.66 184.715C281.533 184.865 281.353 185.103 281.226 185.082C280.968 185.04 280.616 184.917 280.509 184.708C280.329 184.353 280.31 183.904 280.235 183.554C280.413 183.143 280.304 182.551 280.877 182.646C281.13 182.688 281.46 182.93 281.553 183.17C281.698 183.542 281.674 183.99 281.71 184.406C281.719 184.509 281.715 184.649 281.66 184.715Z" fill="#010101"/>
<path d="M332.005 188.707C332.076 186.74 331.486 184.996 330.479 183.42C328.119 179.726 324.007 179.566 321.382 183.036C319.02 186.158 318.785 191.464 320.86 194.822C323.225 198.648 327.561 198.833 330.154 195.189C331.512 193.279 332.058 191.073 332.005 188.707ZM325.538 190.783C325.224 191.217 324.714 191.558 324.205 191.353C323.872 191.22 323.51 190.795 323.416 190.426C323.003 188.815 323.013 187.183 323.572 185.602C323.792 184.981 324.148 184.432 324.871 184.392C325.532 184.355 326.22 184.974 326.367 185.764C326.446 186.191 326.468 186.63 326.468 186.628C326.518 188.407 326.326 189.697 325.538 190.783ZM328.638 191.948C328.397 192.401 328.152 192.92 327.525 192.688C327.111 192.534 326.947 192.154 326.937 191.466C326.957 191.392 326.976 191.049 327.133 190.809C327.359 190.462 327.693 190.214 328.144 190.392C328.559 190.555 328.757 190.9 328.779 191.345C328.789 191.545 328.732 191.773 328.638 191.948Z" fill="#020202"/>
<path d="M298.723 586.655C292.717 586.429 286.738 586.987 280.752 587.34C279.929 587.389 279.106 587.557 278.291 587.276C277.753 587.09 277.415 586.726 277.389 586.098C277.363 585.477 277.655 584.988 278.156 584.791C278.728 584.566 279.355 584.488 279.964 584.389C284.17 583.703 288.419 583.707 292.652 583.667C302.577 583.574 312.508 583.715 322.399 584.672C329.908 585.398 337.385 586.487 344.782 588.106C349.536 589.146 354.295 590.154 359.044 591.216C360.047 591.44 361.043 591.765 361.992 592.178C362.569 592.429 362.988 592.981 362.836 593.765C362.722 594.35 362.057 594.811 361.37 594.68C359.744 594.37 358.133 593.977 356.509 593.656C347.778 591.931 339.092 589.917 330.274 588.744C324.532 587.98 318.778 587.308 312.981 587.165C308.227 587.048 303.476 586.829 298.723 586.655Z" fill="#020101"/>
<path d="M326.003 274.025C325.976 279.466 323.545 284.094 318.873 287.366C315.308 289.862 311.32 290.87 307.099 290.923C306.692 290.929 306.265 290.864 305.883 290.723C305.353 290.528 305.067 290.077 305.089 289.453C305.109 288.858 305.338 288.343 305.868 288.156C306.349 287.987 306.879 287.972 307.39 287.909C309.342 287.669 311.312 287.516 313.173 286.777C314.331 286.316 315.516 285.873 316.588 285.23C321.623 282.207 323.928 276.724 322.875 270.615C322.221 266.815 320.647 263.491 318.412 260.519C313.215 253.611 306.453 249.416 298.415 247.493C296.697 247.082 294.96 246.837 293.192 246.777C291.721 246.727 290.914 245.957 291.089 244.994C291.253 244.1 291.991 243.574 293.278 243.642C296.493 243.811 299.641 244.416 302.706 245.49C309.124 247.737 314.697 251.412 319.264 256.765C321.658 259.57 323.545 262.718 324.795 266.297C325.602 268.609 325.989 270.988 326.003 274.025ZM189.722 338.465C189.652 338.646 189.595 338.999 189.408 339.235C189.147 339.566 188.808 339.837 188.471 340.086C182.302 344.639 176.908 350.135 171.861 356.01C162.991 366.334 155.612 377.781 149.804 390.371C149.072 391.957 148.301 393.523 147.529 395.087C147.289 395.574 147.015 396.049 146.706 396.489C146.291 397.078 145.543 397.217 145.06 396.824C144.499 396.368 144.308 395.737 144.609 395.066C146.26 391.377 147.821 387.633 149.635 384.037C156.817 369.797 165.924 357.127 176.996 346.091C179.722 343.373 182.547 340.778 185.584 338.46C186.34 337.884 187.063 337.245 187.983 336.968C188.778 336.728 189.776 337.502 189.722 338.465Z" fill="#020202"/>
<path d="M349.713 184.283C349.542 185.05 349.331 185.545 348.766 185.708C348.244 185.859 347.693 185.833 347.352 185.352C346.984 184.834 346.68 184.244 346.442 183.643C344.635 179.076 341.52 175.817 337.545 173.427C333.388 170.926 329.009 169.071 324.275 168.236C322.624 167.945 321.003 167.841 319.373 168.326C318.979 168.444 318.565 168.532 318.158 168.547C317.738 168.562 317.323 168.382 317.132 167.96C316.892 167.431 316.933 166.818 317.316 166.419C317.667 166.055 318.158 165.806 318.626 165.618C320.622 164.82 322.714 164.897 324.742 165.244C331.149 166.339 337.009 168.923 342.255 173.043C345.411 175.523 347.639 178.786 349.205 182.592C349.45 183.188 349.582 183.837 349.713 184.283Z" fill="#040303"/>
<path d="M304.112 217.266C304.726 217.266 305.353 217.182 305.95 217.291C306.455 217.383 306.889 217.73 307.031 218.345C307.164 218.923 306.793 219.686 306.212 219.97C306.025 220.062 305.832 220.148 305.633 220.202C300.051 221.71 293.867 217.934 292.097 211.94C290.991 208.197 291.76 205.113 294.631 202.786C297.202 200.702 299.617 198.478 301.648 195.787C301.894 195.462 302.269 195.214 302.628 195.028C303.278 194.693 304.143 195.432 304.113 196.209C304.085 196.924 303.743 197.461 303.36 197.986C301.955 199.911 300.404 201.69 298.653 203.262C298.019 203.831 297.354 204.361 296.717 204.926C294.478 206.906 293.961 209.171 295.238 211.972C296.485 214.705 298.453 216.545 301.339 217.056C302.253 217.218 303.179 217.305 304.099 217.426C304.103 217.372 304.107 217.319 304.112 217.266Z" fill="#050404"/>
<path d="M215.976 443.019C215.344 444.646 214.724 446.279 214.077 447.899C211.875 453.412 209.012 458.483 205.302 462.997C203.601 465.067 201.965 467.2 200.296 469.3C199.828 469.888 199.368 470.516 198.647 470.747C198.232 470.881 197.81 470.706 197.571 470.305C197.418 470.047 197.245 469.651 197.328 469.415C197.502 468.916 197.8 468.45 198.114 468.027C199.588 466.04 201.023 464.016 202.583 462.109C207.399 456.222 210.872 449.522 213.339 442.188C213.686 441.156 214.086 440.139 214.544 439.158C214.92 438.352 215.621 438.208 216.399 438.429C218.264 440.172 217.098 441.593 215.976 443.019ZM398.446 220.029C401.093 220.863 402.641 222.826 403.714 225.319C405.035 228.387 405.804 231.552 405.274 234.96C405.241 235.176 405.19 235.392 405.128 235.602C404.878 236.459 404.147 237.003 403.53 236.778C402.813 236.515 402.676 235.86 402.71 235.179C402.816 233.074 402.897 230.978 402.212 228.947C402.002 228.325 401.818 227.693 401.609 227.071C400.739 224.496 399.423 222.595 396.473 222.843C395.625 222.915 395.113 222.112 395.36 221.286C395.64 220.348 395.991 219.418 396.433 218.556C398.608 214.323 401.986 211.515 405.972 209.441C406.833 208.993 407.722 208.768 408.668 208.961C409.219 209.073 409.585 209.437 409.638 210.069C409.677 210.546 409.509 210.979 409.133 211.196C408.688 211.453 408.171 211.56 407.706 211.78C403.949 213.559 400.722 216.022 398.446 220.029Z" fill="#060505"/>
<path d="M281.175 158.624C286.465 158.804 290.832 161.091 294.685 164.668C294.987 164.948 295.217 165.337 295.423 165.712C295.804 166.409 295.627 167.389 295.058 167.786C294.454 168.209 293.841 168.072 293.356 167.589C292.141 166.38 290.826 165.326 289.412 164.402C285.197 161.647 280.723 161.105 276.023 162.618C274.226 163.196 272.565 164.066 271.29 165.614C271.02 165.942 270.758 166.298 270.429 166.545C270.098 166.794 269.714 166.913 269.285 166.628C268.786 166.298 268.59 165.845 268.61 165.254C268.63 164.668 268.934 164.218 269.266 163.791C270.274 162.499 271.513 161.519 272.904 160.755C275.082 159.56 278.821 158.615 281.175 158.624Z" fill="#060404"/>
<path d="M182.557 453.523C181.192 453.508 179.821 453.561 178.464 453.438C178.059 453.401 177.998 452.86 178.432 452.533C179.04 453.023 179.744 452.786 180.412 452.831C181.177 452.883 181.996 452.744 182.557 453.523Z" fill="#813F3F"/>
<path d="M238.146 383.919C238.166 383.588 238.172 383.255 238.209 382.926C238.304 382.091 238.123 381.4 237.399 380.944C237.134 380.776 236.902 380.548 236.648 380.358C230.853 376.023 228.856 369.804 228.809 362.544C228.791 359.749 229.319 357.048 229.722 354.329C229.945 352.815 230.555 351.365 231.46 350.114C232.126 349.195 232.279 348.264 232.121 347.039C231.379 341.271 233.803 336.989 238.003 333.683C240.126 332.011 242.561 332.303 244.864 332.955C250.802 334.636 255.458 341.116 255.612 347.646C255.625 348.198 255.592 348.758 255.676 349.298C255.784 349.994 256.193 350.502 256.828 350.727C257.487 350.961 258.065 350.701 258.495 350.178C259.516 348.934 260.464 347.62 261.509 346.402C262.489 345.259 263.616 344.282 264.886 343.51C267.269 342.061 269.628 342.109 271.903 343.734C274.889 345.867 276.63 348.901 277.369 352.637C277.854 355.091 277.677 357.469 276.743 359.772C276.182 361.155 275.338 362.218 273.872 362.528C273.153 362.681 272.477 362.942 271.906 363.449C271.147 364.124 271.068 365.392 271.825 366.073C272.533 366.709 273.345 367.212 274.099 367.792C277.701 370.565 279.178 374.328 278.693 379.028C278.48 381.09 277.709 382.875 276.387 384.345C273.822 387.198 270.718 388.67 266.949 388.46C264.789 388.34 263.21 387.362 262.187 385.333C261.795 384.555 261.443 383.75 260.992 383.013C260.64 382.437 260.073 382.111 259.403 382.183C258.614 382.269 258.034 382.742 257.818 383.555C257.621 384.292 257.573 385.074 257.423 385.828C256.815 388.894 255.208 390.993 252.325 391.881C249.044 392.891 245.796 392.929 242.63 391.452C239.58 390.031 237.893 387.622 238.146 383.919Z" fill="#FECB34"/>
<path d="M217.094 443.612C217.108 442.611 217.007 441.585 217.633 440.714C217.653 441.722 218.022 442.805 217.094 443.612Z" fill="#060505"/>
<path d="M396.501 251.597C395.818 251.583 395.409 251.289 395.151 250.536C394.283 248.01 392.99 245.768 391.025 244.02C386.882 240.334 381.334 239.807 376.221 242.75C371.07 245.714 368.025 250.452 366.841 256.485C365.799 261.801 366.572 266.82 369.772 271.237C370.078 271.66 370.244 272.199 370.475 272.685C370.919 272.952 371.414 273.154 371.801 273.495C376.034 277.219 382.802 277.099 387.466 273.761C391.41 270.938 393.963 267.067 395.336 262.242C396.103 259.547 396.149 256.799 395.901 254.036C395.817 253.106 395.85 252.284 396.501 251.597ZM384.987 268.944C384.398 269.57 383.655 269.853 382.843 269.958C381.432 270.332 380.018 270.398 378.601 269.991C375.599 269.068 374.015 266.842 373.496 263.634C372.72 262.319 372.885 260.84 373.004 259.435C373.366 255.151 374.779 251.286 377.349 247.942C377.479 247.774 377.632 247.604 377.808 247.505C377.958 247.423 378.226 247.356 378.318 247.439C378.44 247.548 378.54 247.867 378.476 247.998C378.237 248.484 377.944 248.944 377.641 249.389C375.18 253.002 374.077 257.066 374.113 261.51C374.153 261.726 374.206 261.939 374.229 262.156C374.59 265.611 376.214 268.059 379.247 269.387C380.219 269.368 381.191 269.35 382.162 269.332H382.163C382.838 268.606 383.81 268.62 384.619 268.225C384.747 268.162 385.034 268.285 385.138 268.419C385.2 268.501 385.101 268.824 384.987 268.944Z" fill="#FECB34"/>
<path d="M792.771 609.04C787.917 609.359 783.061 609.662 778.208 610.004C774.698 610.252 771.192 610.563 767.683 610.827C760.458 611.37 753.232 611.906 746.005 612.427C745.31 612.477 744.564 612.697 743.921 612.098C744.831 603.643 746.017 595.209 746.573 586.698C746.804 583.165 747.203 579.645 747.549 576.122C747.651 575.088 747.409 574.266 746.887 573.338C745.396 570.689 743.354 568.749 740.903 567.211C737.67 565.182 734.203 563.745 730.62 562.656C717.412 558.646 703.977 557.577 690.363 559.413C686.57 559.924 682.832 560.827 679.303 562.516C677.59 563.337 675.981 564.307 674.647 565.744C673.169 567.337 672.484 569.218 672.809 571.474C672.999 572.787 673.228 574.097 673.358 575.417C674.214 584.124 674.74 592.852 674.843 601.61C674.872 604.044 675.055 606.477 675.166 608.91C675.211 609.906 675.282 610.902 675.281 611.897C675.281 612.202 675.106 612.542 674.744 612.604C674.032 612.726 673.32 612.878 672.602 612.932C668.886 613.212 665.169 613.474 661.452 613.728C653.707 614.255 645.96 614.747 638.216 615.302C627.48 616.071 616.747 616.908 606.01 617.671C595.066 618.449 584.117 619.16 573.173 619.924C568.836 620.226 564.505 620.615 560.169 620.922C555.213 621.272 550.254 621.573 545.296 621.899C544.464 621.954 543.716 621.978 543.047 621.186C539.695 617.22 535.381 614.886 530.788 613.034C530.162 612.781 529.379 612.768 528.979 612.042C529.051 611.404 529.503 611.077 529.857 610.69C532.174 608.158 534.501 605.635 536.827 603.11C559.498 578.495 582.17 553.88 604.839 529.263C605.565 528.475 606.331 527.716 606.969 526.85C608.24 525.125 608.103 522.812 606.731 521.429C605.322 520.01 603.312 520.012 601.665 521.477C601.11 521.971 600.621 522.551 600.112 523.103C596.476 527.045 592.842 530.988 589.209 534.933C566.831 559.236 544.441 583.525 522.103 607.87C520.74 609.356 519.534 610.02 517.519 609.566C514.184 608.817 510.765 608.531 507.344 608.456C501.547 608.329 495.764 608.368 489.983 609.056C481.519 610.065 473.255 611.93 465.276 615.141C460.223 617.175 455.414 619.718 451.139 623.3C448.422 625.576 446.04 628.193 444.58 631.588C444.103 632.696 443.449 632.961 442.425 633.011C438.911 633.185 435.401 633.449 431.889 633.667C423.315 634.199 414.74 634.721 406.166 635.255C404.927 635.332 403.69 635.46 402.452 635.557C402.004 635.591 401.645 635.406 401.455 634.958C401.242 634.456 401.053 633.941 400.865 633.427C396.796 622.327 389.307 615.055 378.966 610.949C373.083 608.612 366.935 607.689 360.741 607.267C341.689 605.971 322.685 606.508 303.75 609.303C294.119 610.725 284.475 612.058 274.769 612.786C269.702 613.165 264.636 613.18 259.566 612.875C256.881 612.713 254.195 612.507 251.507 612.444C243.54 612.256 235.571 612.123 227.603 611.983C226.155 611.958 224.702 611.926 223.258 612.02C212.415 612.729 201.567 613.383 190.813 615.156C184.237 616.241 177.853 617.995 172.017 621.554C170.97 622.193 169.897 622.32 168.754 622.374C155.003 623.014 141.253 623.67 127.503 624.318C113.546 624.976 99.5885 625.628 85.6315 626.285C71.2608 626.961 56.8908 627.65 42.5193 628.312C30.6293 628.859 18.7373 629.362 6.84732 629.911C4.472 630.02 2.10095 630.244 -0.272095 630.415C-0.272095 631.523 -0.272095 632.631 -0.272095 633.738C1.95322 633.106 4.24087 633.254 6.50462 633.147C13.8449 632.799 21.1881 632.515 28.5284 632.167C40.0036 631.622 51.4769 631.03 62.9522 630.486C70.0858 630.147 77.222 629.878 84.3563 629.549C97.4864 628.942 110.616 628.316 123.745 627.695C129.845 627.406 135.944 627.109 142.044 626.819C149.694 626.455 157.344 626.087 164.995 625.745C165.564 625.719 166.205 625.484 166.436 625.735C166.965 626.417 166.671 626.678 166.507 626.924C162.882 632.332 159.834 638.119 156.892 643.964C154.734 648.254 153.031 652.778 151.6 657.405C150.756 660.136 149.978 662.902 149.947 665.819C149.94 666.568 149.73 667.158 149.044 667.357C146.43 668.114 145.295 670.315 144.415 672.746C143.664 674.821 143.179 676.973 143.14 679.213C142.99 688.073 142.782 696.941 143.947 705.75C144.41 709.253 144.99 712.748 145.709 716.201C146.843 721.643 149.491 725.983 154.246 728.606C156.643 729.928 159.139 730.973 161.809 731.487C169.05 732.882 176.37 733.588 183.7 734.029C193.414 734.614 203.137 734.695 212.873 734.391C222.293 734.097 231.681 733.415 241.065 732.58C250.138 731.773 259.209 730.943 268.278 730.094C273.534 729.603 278.786 729.06 284.039 728.53C289.395 727.989 294.74 727.283 300.106 726.921C309.812 726.265 319.498 725.483 329.17 724.322C338.425 723.211 347.625 721.715 356.86 720.479C363.222 719.628 369.596 718.872 375.974 718.16C380.5 717.654 385.046 717.342 389.574 716.849C392.864 716.49 396.152 716.059 399.418 715.509C403.153 714.881 405.839 712.588 407.56 709.027C408.56 706.958 409.309 704.775 409.637 702.451C410.24 698.179 410.656 693.887 410.898 689.573C411.165 684.819 411.486 680.068 411.812 675.318C412.032 672.113 412.296 668.906 412.132 665.693C411.93 661.751 409.89 659.12 406.333 658.175C405.565 657.97 405.397 657.515 405.289 656.802C404.427 651.126 404.182 645.348 402.824 639.753C402.66 639.078 403.063 638.731 403.653 638.658C404.269 638.582 404.89 638.539 405.51 638.503C410.366 638.216 415.224 637.956 420.078 637.643C424.933 637.33 429.783 636.949 434.637 636.629C437.207 636.46 439.781 636.359 442.315 636.229C442.382 636.563 442.448 636.687 442.419 636.775C442.111 637.699 441.805 638.624 441.468 639.536C436.863 652.018 436.086 664.715 439.839 677.578C444.494 693.53 454.119 705.057 467.831 712.753C469.673 713.787 470.996 714.681 470.327 717.154C470.218 717.56 470.317 718.036 470.343 718.477C470.559 722.117 472.268 724.443 475.577 725.401C476.866 725.775 478.21 726.01 479.543 726.121C491.837 727.15 504.153 727.072 516.469 726.845C517.192 726.832 517.926 726.813 518.634 726.677C521.035 726.215 522.27 724.921 522.692 722.332C523.066 720.035 523.255 717.732 522.728 715.404C522.399 713.949 522.472 713.894 523.823 713.174C527.913 710.995 531.79 708.449 535.294 705.313C548.55 693.448 555.886 678.444 556.233 659.765C556.242 659.253 556.043 658.679 556.624 658.065C557.514 658.553 558.055 659.5 558.706 660.283C567.917 671.38 577.115 682.49 586.32 693.595C601.018 711.329 615.711 729.068 630.435 746.777C631.455 748.003 631.986 749.2 631.906 750.91C631.601 757.437 631.447 763.973 631.219 770.504C631.172 771.863 631.037 772.005 629.749 772.05C625.508 772.198 621.266 772.337 617.025 772.448C599.746 772.897 582.467 773.334 565.188 773.777C547.805 774.222 530.423 774.668 513.041 775.113C495.762 775.555 478.483 775.997 461.204 776.439C443.925 776.882 426.646 777.324 409.368 777.767C391.985 778.212 374.603 778.658 357.221 779.103C339.942 779.545 322.663 779.987 305.384 780.43C288.001 780.875 270.619 781.32 253.237 781.766C235.958 782.208 218.679 782.65 201.4 783.092C184.121 783.535 166.842 783.977 149.564 784.42C132.285 784.862 115.006 785.316 97.7269 785.745C82.8275 786.115 67.9271 786.455 53.0273 786.814C51.3719 786.854 49.7178 786.949 48.0624 786.994C47.1575 787.019 46.8498 786.76 46.8006 785.978C46.7729 785.537 46.7929 785.092 46.7971 784.649C46.8757 776.562 47.0194 768.474 46.9913 760.387C46.9839 758.232 47.636 756.641 48.9117 755.037C67.7583 731.33 86.5602 707.584 105.372 683.846C116.351 669.992 127.33 656.138 138.303 642.279C138.902 641.522 139.517 640.764 140.004 639.926C140.343 639.342 140.283 638.643 139.796 638.09C139.335 637.566 138.351 637.509 137.819 638.07C137.157 638.767 136.569 639.546 135.967 640.305C118.023 662.943 100.081 685.582 82.1395 708.222C69.8886 723.681 57.6445 739.146 45.3782 754.591C44.4084 755.812 43.5836 756.972 44.0373 758.725C44.1964 759.34 44.045 760.046 44.0376 760.711C43.9473 769.02 43.8568 777.329 43.768 785.638C43.7609 786.302 43.7381 786.968 43.768 787.631C43.8454 789.356 44.399 789.99 46.0249 790.145C46.7431 790.213 47.472 790.167 48.1956 790.148C56.3693 789.943 64.543 789.734 72.7168 789.524C90.0989 789.079 107.481 788.634 124.863 788.188C142.038 787.748 159.214 787.308 176.389 786.868C193.771 786.423 211.153 785.979 228.535 785.534C245.917 785.089 263.299 784.644 280.681 784.199C297.96 783.757 315.239 783.315 332.517 782.872C349.796 782.43 367.075 781.987 384.353 781.544C401.632 781.102 418.911 780.66 436.189 780.217C453.572 779.772 470.954 779.327 488.336 778.882C505.615 778.439 522.893 777.997 540.172 777.554C557.451 777.111 574.729 776.66 592.008 776.23C605.252 775.901 618.496 775.603 631.741 775.284C633.776 775.235 633.789 775.22 634.045 773.144C634.14 772.379 634.184 771.603 634.21 770.831C634.437 764.188 634.577 757.541 634.917 750.905C635.04 748.512 634.42 746.724 632.923 744.933C621.122 730.816 609.402 716.621 597.657 702.45C584.264 686.289 570.881 670.12 557.46 653.986C556.319 652.614 555.49 651.24 555.364 649.34C555.278 648.032 554.852 646.747 554.545 645.461C552.968 638.864 550.248 632.799 547.031 626.963C546.743 626.439 546.155 625.964 546.594 625.065C589.259 622.035 631.998 618.999 674.737 615.966C674.835 615.959 674.95 615.97 675.03 616.021C675.114 616.073 675.166 616.184 675.372 616.452C675.399 616.796 675.465 617.333 675.483 617.873C675.656 622.965 675.851 628.057 675.979 633.151C676.13 639.135 676.605 645.091 677.133 651.047C677.622 656.559 678.036 662.079 678.51 667.592C678.767 670.573 679.284 673.512 679.934 676.421C680.226 677.725 680.782 678.735 681.936 679.586C684.299 681.328 686.846 682.356 689.629 682.893C694.216 683.777 698.842 684.352 703.483 684.705C709.277 685.146 715.057 685.114 720.766 683.629C726.074 682.248 730.895 679.869 735.158 676.186C736.521 675.008 737.382 673.628 737.548 671.728C737.654 670.52 737.936 669.33 738.102 668.126C739.783 655.961 740.721 643.707 741.919 631.484C742.372 626.859 742.779 622.227 743.234 617.602C743.395 615.971 743.511 615.855 744.869 615.751C753.435 615.098 762.002 614.451 770.569 613.821C777.795 613.289 785.024 612.793 792.249 612.255C793.065 612.195 793.869 611.96 794.679 611.807C795.114 610.039 795.457 608.342 792.771 609.04ZM399.868 640.37C400.249 642.307 400.734 644.215 400.991 646.186C401.417 649.458 401.92 652.719 402.456 655.973C402.611 656.913 402.292 657.467 401.574 657.829C400.741 658.248 399.897 658.657 399.027 658.975C398.298 659.241 397.859 658.857 397.849 658.031C397.832 656.708 397.844 655.385 397.844 653.5C397.81 649.185 397.037 644.418 396.008 639.684C395.878 639.09 395.43 638.325 395.97 637.831C396.609 637.246 397.279 637.852 397.938 638.104C398.984 638.503 399.622 639.118 399.868 640.37ZM391.227 623.265C394.219 626.022 397.082 630.971 397.705 634.467C397.345 634.866 396.937 634.576 396.551 634.55C395.174 634.459 394.362 633.822 393.94 632.269C393.253 629.737 392.285 627.292 391.429 624.812C391.255 624.308 390.916 623.836 391.227 623.265ZM394.834 657.458C394.82 657.789 394.818 658.123 394.769 658.449C394.676 659.069 394.319 659.413 393.729 659.437C391.872 659.514 390.015 659.568 388.16 659.658C383.831 659.868 379.503 660.102 375.174 660.308C374.253 660.352 373.328 660.314 372.319 660.314C371.639 657.145 371.053 654.014 370.283 650.936C369.431 647.529 368.404 644.172 367.465 640.789C367.23 639.944 367.428 639.473 368.171 639.27C369.968 638.781 371.759 638.107 373.587 637.934C379.335 637.392 385.073 636.449 390.875 637.095C392.094 637.23 392.399 637.375 392.659 638.459C394.155 644.689 395.098 650.995 394.834 657.458ZM357.405 610.521C358.731 610.521 360.068 610.414 361.386 610.54C366.851 611.059 372.284 611.802 377.495 613.778C378.371 614.11 379.246 614.449 380.098 614.842C385.781 617.464 385.962 617.671 388.099 623.984C388.978 626.584 389.84 629.19 390.695 631.799C390.861 632.308 390.957 632.843 391.098 633.419C390.266 634.061 389.43 633.78 388.666 633.741C383.055 633.449 377.517 634.25 371.982 635.028C370.457 635.242 368.974 635.8 367.469 636.192C366.33 636.488 366.062 636.356 365.639 635.097C364.382 631.35 363.121 627.603 361.923 623.834C360.691 619.955 359.334 616.133 357.774 612.393C357.527 611.803 357.143 611.245 357.405 610.521ZM330.129 609.972C330.435 609.932 330.746 609.903 331.054 609.904C337.978 609.926 344.901 609.986 351.824 609.952C353.275 609.945 354.002 610.49 354.571 611.951C357.039 618.276 359.05 624.776 361.191 631.227C361.804 633.074 362.391 634.932 363.03 636.909C361.836 637.155 360.836 637.456 359.82 637.554C356.324 637.888 352.822 638.144 349.324 638.447C347.677 638.589 346.032 638.752 344.39 638.942C343.992 638.988 343.556 639.097 343.236 639.332C342.916 639.567 342.59 639.986 342.736 640.456C342.857 640.845 343.09 641.37 343.389 641.484C343.949 641.696 344.595 641.727 345.201 641.704C350.671 641.492 356.139 641.298 361.578 640.508C364.387 640.099 364.002 639.905 364.964 642.908C366.707 648.352 367.903 653.952 369.094 659.553C369.134 659.745 369.047 659.968 369.014 660.228C368.742 660.313 368.455 660.47 368.162 660.486C360.732 660.884 353.302 661.268 345.871 661.653C345.459 661.674 345.045 661.7 344.632 661.693C343.584 661.675 343.413 661.549 343.182 660.445C342.368 656.565 341.611 652.671 340.765 648.798C338.034 636.309 334.75 624.002 330.107 612.149C329.948 611.743 329.747 611.349 329.638 610.928C329.524 610.484 329.566 610.047 330.129 609.972ZM307.468 612.085C312.913 611.495 318.36 610.917 323.812 610.395C326.567 610.131 326.29 610.077 327.353 612.891C329.442 618.423 331.163 624.093 332.845 629.783C335.746 639.591 337.989 649.571 339.963 659.628C340.026 659.952 340.07 660.282 340.115 660.61C340.259 661.662 340.055 661.926 338.982 662.061C338.675 662.1 338.364 662.111 338.055 662.133C331.148 662.619 324.241 663.105 317.334 663.587C316.715 663.63 316.095 663.64 315.475 663.674C313.323 663.792 313.44 663.562 313.321 661.559C312.94 655.141 311.709 648.863 310.531 642.577C310.372 641.731 310.045 640.893 310.426 639.874C315.655 639.82 320.895 640.021 326.059 641.314C327.063 641.565 328.076 641.803 329.097 641.938C329.585 642.002 330.114 641.858 330.604 641.722C331.024 641.605 331.293 641.233 331.362 640.771C331.449 640.187 331.288 639.635 330.823 639.32C330.488 639.093 330.057 639.014 329.659 638.911C325.236 637.763 320.788 636.826 316.205 636.814C314.243 636.809 312.281 636.666 310.32 636.564C309.783 636.537 309.285 636.338 309.164 635.692C307.723 628.009 305.78 620.452 304.001 612.713C305.251 612.482 306.352 612.206 307.468 612.085ZM279.003 655.184C279.065 655.183 279.127 655.181 279.19 655.179C279.028 652.083 278.852 648.988 278.711 645.891C278.649 644.535 278.717 644.443 280.04 644.224C282.39 643.836 284.74 643.408 287.105 643.16C292.053 642.642 296.916 641.555 301.824 640.773C302.13 640.724 302.428 640.594 302.734 640.566C307.826 640.096 306.788 639.197 307.785 644.407C308.594 648.633 309.234 652.897 309.886 657.155C310.12 658.681 310.211 660.236 310.294 661.782C310.414 664.023 310.369 664.062 308.394 664.212C305.401 664.441 302.404 664.618 299.413 664.868C294.152 665.309 288.898 665.843 283.634 666.215C282.137 666.321 280.586 666.9 279.095 666.095C278.756 664.57 279.033 663.03 279.01 661.498C278.98 659.394 279.003 657.289 279.003 655.184ZM283.334 615.176C288.046 614.579 292.758 613.982 297.47 613.389C298.29 613.286 299.11 613.169 299.933 613.12C301.094 613.05 301.263 613.208 301.554 614.544C302.959 620.993 304.359 627.442 305.752 633.893C305.891 634.539 305.984 635.196 306.08 635.851C306.174 636.488 305.944 636.901 305.318 637.001C298.179 638.137 291.045 639.312 283.897 640.38C282.189 640.635 280.484 641.205 278.534 640.919C277.828 636.759 278.011 632.571 277.774 628.418C277.542 624.349 277.236 620.286 276.948 615.995C279.078 615.722 281.206 615.446 283.334 615.176ZM258.27 641.204C257.596 640.942 256.876 640.778 256.162 640.679C252.166 640.124 248.213 639.209 244.173 639.007C242.714 638.933 242.658 638.811 242.88 637.18C243.791 630.499 244.748 623.824 245.05 617.067C245.108 615.775 245.309 615.55 246.578 615.583C250.922 615.696 255.269 615.773 259.605 616.045C263.64 616.299 267.667 616.365 271.701 616.163C272.011 616.148 272.32 616.101 272.63 616.092C273.887 616.055 274.117 616.236 274.207 617.506C274.387 620.045 274.573 622.586 274.678 625.129C274.82 628.559 274.862 631.993 275 635.423C275.067 637.08 275.261 638.732 275.385 640.387C275.445 641.188 275.077 641.621 274.329 641.681C272.473 641.829 270.616 641.971 268.76 642.127C268.248 642.17 267.724 642.191 267.231 642.326C266.693 642.473 266.351 642.92 266.344 643.522C266.336 644.133 266.721 644.606 267.207 644.771C267.783 644.967 268.425 645.021 269.035 645.003C270.895 644.948 272.755 644.844 274.613 644.727C275.258 644.686 275.583 645.026 275.667 645.636C275.774 646.402 275.831 647.177 275.878 647.95C276.228 653.705 276.034 659.464 275.937 665.221C275.914 666.641 275.736 666.843 274.566 666.917C263.207 667.631 251.848 668.333 240.488 669.023C239.785 669.066 239.036 669.271 238.298 668.62C238.943 664.328 239.602 659.964 240.255 655.599C240.828 651.776 241.403 647.953 241.96 644.127C242.229 642.281 242.318 642.19 244.144 642.246C247.049 642.335 249.893 642.951 252.76 643.367C254.092 643.56 255.418 643.799 256.751 643.982C257.151 644.037 257.572 644.013 257.973 643.949C258.525 643.86 259.099 643.1 259.064 642.519C259.027 641.937 258.773 641.4 258.27 641.204ZM200.466 669.043C201.436 662.807 203.004 656.744 205.018 650.803C205.42 649.618 206.075 649.094 207.168 648.772C212.742 647.132 218.277 645.343 223.86 643.744C228.484 642.421 233.226 642.036 238.005 642.213C238.293 642.224 238.577 642.375 238.931 642.48C239.077 645.297 238.376 647.975 238.016 650.679C237.287 656.152 236.379 661.598 235.541 667.055C235.474 667.491 235.37 667.921 235.292 668.356C235.183 668.959 234.876 669.348 234.288 669.428C233.98 669.47 233.67 669.497 233.361 669.516C225.101 670.019 216.841 670.521 208.582 671.024C206.104 671.175 203.627 671.333 201.149 671.476C200.658 671.505 200.37 671.19 200.358 670.692C200.345 670.143 200.382 669.585 200.466 669.043ZM199.005 660.917C198.111 664.322 197.642 667.816 197.099 671.562C194.416 671.76 191.956 671.983 189.492 672.116C184.133 672.406 178.771 672.657 173.41 672.908C172.539 672.948 172.271 672.667 172.294 671.806C172.333 670.37 172.509 668.959 172.793 667.544C173.859 662.223 175.725 657.212 177.759 652.256C178.104 651.415 178.501 651.219 179.406 651.372C183.615 652.08 187.846 651.769 192.063 651.374C194.425 651.152 196.774 650.764 199.135 650.51C199.936 650.424 200.756 650.151 201.753 650.544C200.835 654.006 199.912 657.459 199.005 660.917ZM224.863 615.21C230.036 615.179 235.21 615.305 240.385 615.364C240.695 615.368 241.007 615.365 241.315 615.394C242.084 615.468 242.379 615.84 242.31 616.722C242.187 618.266 242.074 619.814 241.885 621.35C241.237 626.618 240.557 631.881 239.887 637.146C239.859 637.365 239.807 637.581 239.758 637.796C239.6 638.498 239.285 638.988 238.511 638.97C237.58 638.949 236.648 638.988 235.717 638.978C230.82 638.923 226.032 639.729 221.329 641.136C217.151 642.385 212.987 643.684 208.813 644.946C208.432 645.06 208.021 645.059 207.076 645.183C210.909 635.864 214.144 626.746 219.183 618.564C221.586 614.662 221.024 615.232 224.863 615.21ZM199.453 618.14C200.028 617.461 200.697 617.057 201.587 616.963C206.625 616.428 211.657 615.818 216.73 615.819C216.8 615.819 216.871 615.928 216.947 615.991C217.212 616.627 216.751 617.018 216.475 617.443C213.687 621.728 211.505 626.362 209.559 631.133C207.742 635.589 205.871 640.022 204.142 644.517C203.57 646.004 202.841 646.841 201.281 647.043C195.635 647.772 189.985 648.423 184.309 648.812C182.776 648.918 181.254 648.821 179.811 648.281C179.777 647.197 180.343 646.486 180.719 645.723C182.551 642.001 184.579 638.404 186.888 634.996C190.286 629.977 193.812 625.064 197.573 620.348C198.177 619.591 198.828 618.877 199.453 618.14ZM158.998 646.54C161.906 640.688 164.973 634.934 168.48 629.462C170.334 626.568 172.85 624.531 175.8 623.041C180.412 620.711 185.284 619.332 190.296 618.521C191.914 618.26 193.507 617.628 195.682 617.951C187.596 628.06 180.281 638.155 175.469 649.934C174.602 650.217 174.403 649.263 173.846 649.199C173.236 649.129 172.612 649.13 171.998 649.174C167.844 649.469 163.758 648.819 159.672 648.173C158.674 648.016 158.48 647.583 158.998 646.54ZM153.367 662.441C154.172 658.897 155.295 655.469 156.683 652.14C157.192 650.92 157.308 650.814 158.534 650.984C160.065 651.195 161.594 651.452 163.109 651.774C166.77 652.551 170.449 652.622 174.149 652.17C174.418 653.3 173.718 654.108 173.399 654.994C171.876 659.214 170.396 663.445 169.695 667.93C169.492 669.231 169.356 670.548 169.256 671.864C169.199 672.621 168.974 673.092 168.211 673.195C165.132 673.611 162.038 673.71 158.951 673.484C157.502 673.378 156.182 672.696 155.057 671.639C153.752 670.411 152.974 668.932 152.945 667.041C152.922 665.489 153.024 663.949 153.367 662.441ZM403.013 660.639C403.596 660.264 404.04 660.058 404.644 660.647C404.997 660.991 405.554 661.117 406.037 661.28C407.955 661.924 408.878 663.426 409.068 665.452C409.191 666.768 409.188 668.11 409.112 669.432C408.79 675.07 408.442 680.706 408.06 686.34C407.776 690.536 407.44 694.729 407.098 698.921C406.872 701.695 406.309 704.388 405.201 706.926C403.943 709.804 401.992 711.693 398.98 712.364C397.139 712.773 395.28 712.792 393.441 713.081C389.754 713.661 386.05 714.011 382.329 714.278C377.48 714.625 372.639 715.164 367.81 715.764C362.16 716.466 356.526 717.318 350.886 718.114C345.35 718.895 339.822 719.749 334.279 720.463C323.596 721.839 312.897 723.015 302.141 723.584C296.565 723.879 291.007 724.577 285.444 725.125C279.984 725.662 274.531 726.274 269.069 726.791C260.103 727.64 251.138 728.5 242.164 729.24C234.841 729.844 227.537 730.729 220.183 730.898C214.596 731.025 209.011 731.277 203.426 731.474C193.79 731.495 184.176 731.031 174.591 730.033C170.273 729.583 165.937 729.195 161.682 728.182C159.546 727.673 157.551 726.795 155.609 725.739C151.943 723.746 149.804 720.457 148.833 716.307C148.13 713.306 147.578 710.251 147.161 707.189C145.86 697.618 145.805 687.99 146.232 678.349C146.316 676.448 146.764 674.636 147.454 672.89C147.819 671.962 148.279 671.108 149.072 670.508C149.605 670.105 150.285 670.209 150.68 670.793C150.861 671.061 151 671.362 151.168 671.641C153.174 674.978 156.109 676.576 159.739 676.785C161.079 676.862 162.43 676.814 163.773 676.739C172.762 676.232 181.751 675.696 190.74 675.185C195.287 674.926 199.836 674.714 204.382 674.451C217.712 673.683 231.043 672.943 244.369 672.109C257.281 671.3 270.192 670.451 283.096 669.502C292.282 668.827 301.451 667.906 310.635 667.192C318.272 666.598 325.916 666.12 333.56 665.636C342.96 665.039 352.362 664.48 361.764 663.927C363.727 663.811 365.694 663.761 367.66 663.735C371.903 663.68 376.139 663.5 380.377 663.215C385.85 662.846 391.334 662.632 396.816 662.454C399.046 662.381 401.112 661.863 403.013 660.639ZM447.418 632.682C448.466 630.468 449.959 628.651 451.666 627.016C454.15 624.637 456.96 622.776 459.913 621.153C465.464 618.102 471.356 616.073 477.405 614.545C488.577 611.724 499.905 611.087 511.327 611.902C512.357 611.975 513.393 612.107 514.4 612.342C515.242 612.538 516.505 611.99 516.831 613.066C517.078 613.88 515.973 614.445 515.415 615.055C510.999 619.885 506.534 624.664 502.147 629.522C501.136 630.642 500.066 631.073 498.625 631.134C491.773 631.424 485.056 632.587 478.569 635.056C476.517 635.837 474.557 636.822 472.71 638.06C471.562 638.83 470.522 639.739 469.727 640.929C468.12 643.331 468.342 645.769 470.356 647.776C471.593 649.01 473.114 649.716 474.677 650.313C477.627 651.439 480.714 651.862 483.809 652.078C492.352 652.674 500.74 651.637 508.956 649.056C511.64 648.212 514.241 647.136 516.643 645.582C518.063 644.663 519.404 643.622 520.339 642.097C521.806 639.704 521.59 637.506 519.646 635.529C518.02 633.875 515.961 633.124 513.871 632.461C512.92 632.16 511.96 631.891 510.886 631.572C511.18 631.126 511.324 630.833 511.531 630.607C515.956 625.786 520.415 621.001 524.797 616.137C525.724 615.108 526.61 614.847 527.827 615.297C530.96 616.456 534.023 617.769 536.816 619.718C538.561 620.934 540.163 622.318 541.445 624.096C543.994 627.632 544.248 631.359 542.242 635.259C541.181 637.321 539.722 639.038 538.071 640.576C535.875 642.621 533.452 644.305 530.887 645.767C524.915 649.172 518.543 651.383 511.978 653.013C501.207 655.688 490.284 656.395 479.287 655.584C472.461 655.08 465.752 653.759 459.33 651.088C457.01 650.123 454.778 648.974 452.711 647.488C450.984 646.248 449.407 644.82 448.181 642.995C445.98 639.721 445.706 636.297 447.418 632.682ZM518.222 639.074C518.32 639.291 518.3 639.495 518.163 639.686C518.033 639.943 517.881 640.182 517.705 640.405L517.688 640.429C517.515 640.602 517.316 640.65 517.097 640.601C517.088 640.764 517.078 640.926 517.069 641.089C516.932 641.098 516.794 641.106 516.657 641.114C516.665 641.34 516.598 641.545 516.44 641.72L516.425 641.734C516.135 642.11 515.465 641.893 515.341 642.529L515.293 642.557C514.932 642.509 514.791 642.809 514.61 643.047L514.533 643.085C514.24 643.498 513.879 643.774 513.365 643.73L513.308 643.752C512.945 644.095 512.384 643.979 512.045 644.378L511.934 644.504L511.79 644.424C511.397 644.45 511.126 644.727 510.832 644.955L510.577 645.122L510.278 645.112C509.882 645.41 509.339 645.294 508.963 645.648L508.714 645.802L508.427 645.778C508.03 646.066 507.502 645.96 507.114 646.274C506.278 646.503 505.523 647.076 504.604 646.947C504.209 647.015 503.814 647.083 503.419 647.152C503.051 647.354 502.624 647.344 502.246 647.516C500.067 647.994 497.91 648.695 495.448 648.35C495.919 647.267 496.602 646.734 497.478 646.346C498.242 646.008 498.073 644.717 498.99 644.476C498.992 644.456 498.99 644.438 498.992 644.417C499.348 644.289 499.614 644.066 499.695 643.649C499.729 643.635 499.764 643.621 499.798 643.607C500.74 641.846 502.394 640.754 503.489 639.136L506.417 636.261C507.326 634.589 508.58 634.167 510.198 635.064C510.198 635.064 510.199 635.064 510.199 635.065C513.041 635.305 515.771 635.861 517.854 638.217C517.784 638.597 518.057 638.809 518.222 639.074ZM494.068 638.221C494.027 638.393 493.931 638.464 493.785 638.444C493.217 639.104 492.649 639.764 492.081 640.424C492.057 640.43 492.036 640.432 492.013 640.436C491.822 641.012 491.425 641.368 490.915 641.602C490.859 641.861 490.754 642.065 490.497 642.101C490.496 642.103 490.495 642.105 490.494 642.107C489.951 642.737 489.298 643.296 488.887 644.014L479.375 648.135C478.843 648.458 478.346 648.393 477.947 647.872C477.916 647.86 477.884 647.849 477.853 647.836C477.483 647.749 477.113 647.662 476.743 647.575C476.743 647.574 476.743 647.574 476.743 647.574C476.743 647.574 476.743 647.574 476.743 647.574C476.169 647.746 475.739 647.464 475.345 647.065C475.345 647.065 475.347 647.06 475.35 647.052C474.11 646.842 473.096 646.177 472.237 645.223C471.68 644.603 471.586 643.808 472.065 643.126C472.493 642.517 472.973 641.919 473.529 641.452C475.213 640.041 477.044 638.911 479.17 638.437C479.172 638.431 479.173 638.426 479.175 638.419C480.632 637.305 482.395 637.062 484.048 636.578C487.598 635.536 491.243 634.974 494.899 634.533C495.555 634.454 496.262 634.2 497.108 634.807C496.374 635.749 495.787 636.712 494.719 637.191C494.842 637.854 494.62 637.925 494.068 638.221ZM520.178 719.049C520.083 723.881 519.433 723.699 515.709 723.872C507.867 724.235 500.017 724.182 492.177 723.777C487.644 723.542 483.085 723.703 478.581 722.934C477.669 722.778 476.761 722.57 475.869 722.314C474.054 721.793 473.132 720.441 472.966 718.487C472.893 717.616 472.79 716.726 473.207 715.541C476.179 716.485 478.98 717.573 481.89 718.295C493.662 721.216 505.234 720.504 516.646 716.332C520.086 715.074 520.254 715.196 520.178 719.049ZM547.53 634.468C549.95 639.394 551.813 644.523 552.459 650.097C552.65 651.743 553.037 653.366 553.18 655.015C554.118 665.806 552.045 675.968 547.191 685.418C539.978 699.459 529.049 708.873 514.874 713.739C497.365 719.75 480.508 717.845 464.819 707.428C452.783 699.437 444.918 687.939 441.616 673.093C439.378 663.034 440.026 653.094 443.159 643.324C443.333 642.784 443.535 642.3 444.09 641.92C446.497 647.322 450.805 650.474 455.666 652.91C460.281 655.222 465.16 656.706 470.169 657.577C487.413 660.576 504.392 659.252 521.06 653.647C525.901 652.019 530.543 649.864 534.883 647.012C537.094 645.559 539.171 643.919 541.043 641.991C543.466 639.497 545.337 636.615 546.29 633.147C547.167 633.225 547.274 633.946 547.53 634.468ZM677.359 567.428C678.928 566.114 680.71 565.267 682.578 564.589C686.819 563.048 691.213 562.351 695.652 562.03C698.019 561.858 700.406 561.999 702.784 561.999C712.246 561.803 721.547 563.06 730.62 565.993C733.788 567.016 736.868 568.302 739.706 570.16C741.121 571.087 742.48 572.109 743.448 573.595C744.617 575.388 744.493 576.74 743.041 578.33C742.16 579.295 741.078 579.946 739.956 580.521C737.421 581.822 734.724 582.612 731.977 583.129C724.608 584.514 717.196 584.811 709.728 584.153C703.114 583.571 696.595 582.513 690.219 580.532C687.34 579.637 684.53 578.53 681.858 577.059C680.101 576.093 678.457 574.934 677.078 573.415C675.302 571.458 675.254 569.191 677.359 567.428ZM741.369 607.598C740.81 612.874 740.199 618.144 739.679 623.424C738.91 631.236 738.196 639.054 737.472 646.871C736.769 654.468 735.941 662.049 734.868 669.596C734.391 672.959 734.316 672.92 731.766 674.918C728.552 677.435 724.991 679.143 721.16 680.206C717.952 681.096 714.696 681.638 711.362 681.676C705.871 681.738 700.413 681.389 694.985 680.487C693.046 680.165 691.102 679.878 689.155 679.615C687.804 679.433 686.525 679.011 685.336 678.328C683.929 677.52 682.962 676.415 682.6 674.588C681.89 671.007 681.438 667.391 681.111 663.763C679.671 647.786 678.714 631.777 678.458 615.724C678.423 613.513 678.212 611.306 678.114 609.095C678.071 608.109 678.107 607.12 678.107 605.965C679.304 605.755 680.117 606.378 680.977 606.68C688.389 609.276 696.012 610.601 703.767 611.189C709.035 611.589 714.299 611.641 719.571 611.21C726.92 610.608 734.131 609.399 740.889 606.029C740.967 605.99 741.091 606.056 741.198 606.074C741.655 606.527 741.424 607.085 741.369 607.598ZM742.881 595C742.769 596.321 742.46 597.637 742.466 598.953C742.477 601.022 741.506 602.166 739.856 603.001C737.511 604.187 735.101 605.152 732.591 605.818C724.502 607.963 716.275 608.63 707.973 608.258C700.003 607.901 692.117 606.842 684.428 604.467C682.645 603.916 680.921 603.154 679.148 602.567C678.201 602.254 677.87 601.657 677.837 600.63C677.717 596.869 677.518 593.112 677.378 589.352C677.263 586.255 677.211 583.156 676.737 580.087C676.638 579.441 676.655 578.774 676.621 578.175C676.978 577.934 677.242 577.867 677.535 578.07C682.826 581.727 688.741 583.674 694.81 585.102C702.814 586.985 710.938 587.857 719.133 587.675C724.717 587.551 730.275 587.044 735.711 585.506C738.409 584.742 740.98 583.654 743.948 581.859C743.562 586.64 743.234 590.821 742.881 595Z" fill="black"/>
<path d="M491.448 638.408C491.449 638.42 491.45 638.431 491.451 638.443C491.46 638.431 491.471 638.42 491.481 638.408C491.47 638.408 491.459 638.408 491.448 638.408Z" fill="black"/>
<path d="M794.681 611.807C794.668 611.375 794.628 610.943 794.647 610.513C794.689 609.513 794.19 609.191 793.342 609.222C793.154 609.229 792.961 609.104 792.771 609.04C793.495 608.29 794.467 608.811 795.272 608.478C795.272 609.586 795.272 610.694 795.272 611.802C795.075 611.803 794.878 611.805 794.681 611.807Z" fill="#727171"/>
<path d="M340.647 755.35C323.889 755.757 307.131 756.182 290.373 756.565C274.028 756.938 257.682 757.257 241.336 757.62C221.785 758.054 202.233 758.509 182.681 758.956C163.647 759.392 144.613 759.832 125.578 760.269C108.509 760.661 91.4404 761.053 74.3716 761.44C73.545 761.459 72.7142 761.478 71.8913 761.41C71.2116 761.353 70.7798 760.87 70.6221 760.167C70.4661 759.472 70.9853 758.607 71.7595 758.448C72.5613 758.283 73.3936 758.251 74.2142 758.233C90.9736 757.868 107.733 757.524 124.493 757.151C143.838 756.722 163.183 756.268 182.528 755.825C201.769 755.385 221.011 754.946 240.252 754.505C259.701 754.06 279.149 753.613 298.598 753.168C317.943 752.725 337.288 752.284 356.633 751.841C375.978 751.398 395.323 750.953 414.668 750.51C434.013 750.068 453.358 749.627 472.703 749.184C492.151 748.739 511.6 748.292 531.048 747.847C550.393 747.404 569.738 746.964 589.083 746.519C595.393 746.374 601.704 746.212 608.014 746.075C608.836 746.057 609.671 746.078 610.481 746.211C611.008 746.297 611.351 746.768 611.438 747.367C611.548 748.124 611.22 748.655 610.606 748.968C609.732 749.415 608.779 749.287 607.855 749.306C601.855 749.428 595.854 749.509 589.853 749.642C570.301 750.078 550.75 750.53 531.198 750.978C512.164 751.413 493.129 751.853 474.095 752.289C454.44 752.739 434.785 753.186 415.13 753.635C395.888 754.076 376.647 754.51 357.406 754.964C351.82 755.095 346.235 755.285 340.65 755.448C340.649 755.416 340.648 755.383 340.647 755.35Z" fill="black"/>
</g>
<defs>
<clipPath id="clip0_176_190">
<rect width="795" height="851" fill="white"/>
</clipPath>
</defs>
</svg>
